<svg height="35" viewBox="0 0 35 35" width="35" xmlns="http://www.w3.org/2000/svg" xmlns:xlink="http://www.w3.org/1999/xlink"><clipPath id="a"><path d="m18.634 260.517h1.823v2.757h-1.823z"/></clipPath><path d="m14.062 22.864h9.293v2.757h-9.293z" fill="#fff"/><path d="m14.062 22.864h9.293v2.757h-9.293z" fill="#fff" stroke="#000" stroke-linecap="round" stroke-linejoin="round" stroke-width=".7"/><g transform="translate(2.898 -237.653)"><path d="m10.087 267.016v-3.742h11.446v3.742" fill="#fff"/><path d="m10.087 267.016v-3.742h11.446v3.742" fill="#fff" stroke="#000" stroke-linecap="round" stroke-linejoin="round" stroke-width=".7"/><g clip-path="url(#a)"><path d="m0 0h1.823v2.757h-1.823z" fill="#fff" transform="translate(18.634 260.517)"/></g><path d="m20.276 249.383a1.257 1.257 0 0 0 -1.257 1.257 1.257 1.257 0 0 0 -2.515 0 1.257 1.257 0 0 0 -2.515 0v-7.176a1.258 1.258 0 0 0 -2.515 0v10.671l-1.991-3.285a1.258 1.258 0 1 0 -2.248 1.128l4.62 8.521h1.837l.014.018h5.6l1.3-1.664a4.436 4.436 0 0 0 .936-2.727v-5.486a1.257 1.257 0 0 0 -1.257-1.257" fill="#fff"/><path d="m20.276 249.383a1.257 1.257 0 0 0 -1.257 1.257 1.257 1.257 0 0 0 -2.515 0 1.257 1.257 0 0 0 -2.515 0v-7.176a1.258 1.258 0 0 0 -2.515 0v10.671l-1.991-3.285a1.258 1.258 0 1 0 -2.248 1.128l4.62 8.521h1.837l.014.018h5.6l1.3-1.664a4.436 4.436 0 0 0 .936-2.727v-5.486a1.257 1.257 0 0 0 -1.266-1.257z" fill="#fff" stroke="#000" stroke-linecap="round" stroke-linejoin="round" stroke-width=".7"/></g><path d="m0 0h35v35h-35z" fill="none"/></svg>