<svg height="35" viewBox="0 0 35 35" width="35" xmlns="http://www.w3.org/2000/svg"><path d="m12.9 15.352h18.562v16.011h-18.562z" fill="#fff"/><path d="m12.9 15.352h18.562v16.011h-18.562z" fill="none" stroke="#000" stroke-linecap="round" stroke-linejoin="round" stroke-width=".699"/><path d="m7.698 21.85h1.988v6.7h-1.988z" fill="#fff"/><path d="m7.698 21.85h1.988v6.7h-1.988z" fill="none" stroke="#000" stroke-linecap="round" stroke-linejoin="round" stroke-width=".699"/><g transform="translate(4.161 -142.941)"><path d="m.839 164.015h2.7v8.253h-2.7" fill="#fff"/><path d="m.839 164.015h2.7v8.253h-2.7" fill="none" stroke="#000" stroke-linecap="round" stroke-linejoin="round" stroke-width=".699"/><path d="m13.552 171.361a.907.907 0 0 0 -.907-.907.906.906 0 1 0 0-1.813.907.907 0 1 0 0-1.813h5.174a.907.907 0 1 0 0-1.813h-7.693l2.369-1.436a.907.907 0 1 0 -.814-1.62l-6.143 3.33v1.325l-.013.01v4.035l1.2.933a3.2 3.2 0 0 0 1.966.676h3.955a.907.907 0 0 0 .907-.907" fill="#fff"/><path d="m13.552 171.361a.907.907 0 0 0 -.907-.907.906.906 0 1 0 0-1.813.907.907 0 1 0 0-1.813h5.174a.907.907 0 1 0 0-1.813h-7.693l2.369-1.436a.907.907 0 1 0 -.814-1.62l-6.143 3.33v1.325l-.013.01v4.035l1.2.933a3.2 3.2 0 0 0 1.966.676h3.955a.907.907 0 0 0 .906-.907z" fill="none" stroke="#000" stroke-linecap="round" stroke-linejoin="round" stroke-width=".699"/><path d="m12.645 166.828h5.723a.907.907 0 0 1 0 1.813h-5.723" fill="#fff"/><path d="m12.645 166.828h5.723a.907.907 0 0 1 0 1.813h-5.723" fill="none" stroke="#000" stroke-linecap="round" stroke-linejoin="round" stroke-width=".699"/><path d="m12.645 168.641h5.024a.906.906 0 1 1 0 1.813h-5.024" fill="#fff"/><path d="m12.645 168.641h5.024a.906.906 0 1 1 0 1.813h-5.024" fill="none" stroke="#000" stroke-linecap="round" stroke-linejoin="round" stroke-width=".699"/><path d="m12.645 170.454h3.627a.907.907 0 1 1 0 1.813h-3.627" fill="#fff"/><path d="m12.645 170.454h3.627a.907.907 0 1 1 0 1.813h-3.627" fill="none" stroke="#000" stroke-linecap="round" stroke-linejoin="round" stroke-width=".699"/><path d="m19.754 163.367-1.735-.585-1.735.585v-5.074h3.47z" fill="#fff"/><path d="m19.754 163.367-1.735-.585-1.735.585v-5.074h3.47z" fill="none" stroke="#000" stroke-linecap="round" stroke-linejoin="round" stroke-width=".699"/><path d="m22.7 149.414a4.686 4.686 0 1 0 -5.884 4.525l.848 2.237a.375.375 0 0 0 .7 0l.848-2.237a4.683 4.683 0 0 0 3.487-4.525" fill="#fff"/><path d="m22.7 149.414a4.686 4.686 0 1 0 -5.884 4.525l.848 2.237a.375.375 0 0 0 .7 0l.848-2.237a4.683 4.683 0 0 0 3.488-4.525z" fill="none" stroke="#000" stroke-linecap="round" stroke-linejoin="round" stroke-width=".699"/><path d="m19.446 147.33a1.353 1.353 0 0 0 -1.426 1.352 1.354 1.354 0 0 0 -1.427-1.352 1.4 1.4 0 0 0 -1.28 1.428 2.823 2.823 0 0 0 1.172 2.29l1.535 1.1 1.534-1.1a2.824 2.824 0 0 0 1.173-2.29 1.4 1.4 0 0 0 -1.281-1.428" fill="#fff"/><path d="m19.446 147.33a1.353 1.353 0 0 0 -1.426 1.352 1.354 1.354 0 0 0 -1.427-1.352 1.4 1.4 0 0 0 -1.28 1.428 2.823 2.823 0 0 0 1.172 2.29l1.535 1.1 1.534-1.1a2.824 2.824 0 0 0 1.173-2.29 1.4 1.4 0 0 0 -1.281-1.428z" fill="none" stroke="#000" stroke-linecap="round" stroke-linejoin="round" stroke-width=".699"/></g><path d="m0 0h35v35h-35z" fill="none"/></svg>