<svg height="35" viewBox="0 0 35 35" width="35" xmlns="http://www.w3.org/2000/svg"><path d="m4.285 109.262-3.377 4.945a3.2 3.2 0 0 0 -.558 1.808v2.328h9.95v-10.479h-3.368a3.2 3.2 0 0 0 -2.647 1.4" fill="#fff" transform="translate(3.651 -91.181)"/><path d="m4.285 109.262-3.377 4.945a3.2 3.2 0 0 0 -.558 1.808v2.328h9.95v-10.479h-3.368a3.2 3.2 0 0 0 -2.647 1.398z" fill="none" stroke="#000" stroke-linecap="round" stroke-linejoin="round" stroke-width=".699" transform="translate(3.651 -90.94)"/><path d="m8.557 109.611v3.667h-4.9l2.071-3.031a1.452 1.452 0 0 1 1.2-.636z" fill="#fff" transform="translate(3.651 -90.94)"/><path d="m8.557 109.611v3.667h-4.9l2.071-3.031a1.452 1.452 0 0 1 1.2-.636z" fill="none" stroke="#000" stroke-linecap="round" stroke-linejoin="round" stroke-width=".699" transform="translate(3.651 -90.94)"/><path d="m13.955 14.963h17.092v12.44h-17.092z" fill="#fff"/><path d="m13.955 14.963h17.092v12.44h-17.092z" fill="none" stroke="#000" stroke-linecap="round" stroke-linejoin="round" stroke-width=".699"/><path d="m26.323 120.361h-24.901a1.073 1.073 0 0 1 -1.073-1.073v-.945h27.051v.945a1.072 1.072 0 0 1 -1.073 1.073" fill="#fff" transform="translate(3.651 -90.94)"/><path d="m26.323 120.361h-24.901a1.073 1.073 0 0 1 -1.073-1.073v-.945h27.051v.945a1.072 1.072 0 0 1 -1.077 1.073z" fill="none" stroke="#000" stroke-linecap="round" stroke-linejoin="round" stroke-width=".699" transform="translate(3.651 -90.94)"/><path d="m8.77 120.361a3.074 3.074 0 1 1 -3.07-3.074 3.074 3.074 0 0 1 3.074 3.074" fill="#fff" transform="translate(3.651 -90.94)"/><circle cx="9.347" cy="29.421" fill="none" r="3.074" stroke="#000" stroke-linecap="round" stroke-linejoin="round" stroke-width=".699"/><path d="m6.819 120.361a1.124 1.124 0 1 1 -1.119-1.124 1.124 1.124 0 0 1 1.124 1.124" fill="#cbcbcb" transform="translate(3.651 -90.94)"/><path d="m25.232 120.361a3.075 3.075 0 1 1 -3.075-3.074 3.074 3.074 0 0 1 3.075 3.074" fill="#fff" transform="translate(3.651 -90.94)"/><circle cx="25.809" cy="29.421" fill="none" r="3.074" stroke="#000" stroke-linecap="round" stroke-linejoin="round" stroke-width=".699"/><g transform="translate(3.651 -90.94)"><path d="m23.281 120.361a1.124 1.124 0 1 1 -1.124-1.124 1.124 1.124 0 0 1 1.124 1.124" fill="#cbcbcb"/><path d="m21.01 109.344-2.16-1.01-2.16 1.01v-3.444h4.32z" fill="#fff"/><path d="m21.01 109.344-2.16-1.01-2.16 1.01v-3.444h4.32z" fill="none" stroke="#000" stroke-linecap="round" stroke-linejoin="round" stroke-width=".699"/><path d="m19.361 96.548a3.608 3.608 0 0 0 -3.661-3.607 3.656 3.656 0 0 0 -3.545 3.788 3.571 3.571 0 0 0 .785 2.067 15.723 15.723 0 0 1 2.39 3.884l.427 1.057.428-1.059a12.241 12.241 0 0 1 2.236-3.7 3.589 3.589 0 0 0 .944-2.429" fill="#fff"/><path d="m19.361 96.548a3.608 3.608 0 0 0 -3.661-3.607 3.656 3.656 0 0 0 -3.545 3.788 3.571 3.571 0 0 0 .785 2.067 15.723 15.723 0 0 1 2.39 3.884l.427 1.057.428-1.059a12.241 12.241 0 0 1 2.236-3.7 3.589 3.589 0 0 0 .94-2.43z" fill="none" stroke="#000" stroke-linecap="round" stroke-linejoin="round" stroke-width=".699"/><path d="m16.9 96.36a1.143 1.143 0 1 1 -1.143-1.143 1.143 1.143 0 0 1 1.143 1.143" fill="#cbcbcb"/></g><path d="m0 0h35v35h-35z" fill="none"/></svg>