<svg height="35" viewBox="0 0 35 35" width="35" xmlns="http://www.w3.org/2000/svg" xmlns:xlink="http://www.w3.org/1999/xlink"><clipPath id="a"><path d="m15.754 208.55h2.146v6.613h-2.146z"/></clipPath><clipPath id="b"><path d="m11.668 195.87h9.64v14.663h-9.64z"/></clipPath><g transform="translate(2.236 -191.486)"><path d="m27.742 221.637v-3.256a5.027 5.027 0 0 0 -5.027-5.027h-13.924a5.026 5.026 0 0 0 -5.026 5.027v3.256" fill="#fff"/><path d="m27.742 221.637v-3.256a5.027 5.027 0 0 0 -5.027-5.027h-13.924a5.026 5.026 0 0 0 -5.026 5.027v3.256" fill="#fff" stroke="#000" stroke-linecap="round" stroke-linejoin="round" stroke-width=".699"/><path d="m17.9 213.354-2.146 1.81-2.146-1.81v-4.8h4.292z" fill="#fff"/><path d="m17.9 213.354-2.146 1.81-2.146-1.81v-4.8h4.292z" fill="#fff" stroke="#000" stroke-linecap="round" stroke-linejoin="round" stroke-width=".699"/><g clip-path="url(#a)"><path d="m16.772 208.55h1.128v4.8l-2.147 1.809 1.019-1.809z" fill="#fff"/></g><path d="m11.428 206.269h-1.709a1.648 1.648 0 0 1 -1.648-1.648v-.962a1.648 1.648 0 0 1 1.648-1.648h1.709z" fill="#fff"/><path d="m11.428 206.269h-1.709a1.648 1.648 0 0 1 -1.648-1.648v-.962a1.648 1.648 0 0 1 1.648-1.648h1.709z" fill="#fff" stroke="#000" stroke-linecap="round" stroke-linejoin="round" stroke-width=".699"/><path d="m20.077 206.269h1.709a1.648 1.648 0 0 0 1.648-1.648v-.962a1.648 1.648 0 0 0 -1.648-1.648h-1.709z" fill="#fff"/><path d="m20.077 206.269h1.709a1.648 1.648 0 0 0 1.648-1.648v-.962a1.648 1.648 0 0 0 -1.648-1.648h-1.709z" fill="#fff" stroke="#000" stroke-linecap="round" stroke-linejoin="round" stroke-width=".699"/><path d="m21.306 200.593v4.389a5.554 5.554 0 0 1 -10.956 1.286 5.442 5.442 0 0 1 -.15-1.286v-4.434a5.551 5.551 0 0 1 11.092-.29c.009.109.014.222.014.335" fill="#fff"/><path d="m21.306 200.593v4.389a5.554 5.554 0 0 1 -10.956 1.286 5.442 5.442 0 0 1 -.15-1.286v-4.434a5.551 5.551 0 0 1 11.092-.29c.008.109.014.222.014.335z" fill="#fff" stroke="#000" stroke-linecap="round" stroke-linejoin="round" stroke-width=".699"/><g clip-path="url(#b)"><path d="m21.308 200.593v4.39a5.556 5.556 0 0 1 -9.151 4.23 4.776 4.776 0 0 1 -.489-.475 5.556 5.556 0 0 0 8.306-3.444 5.415 5.415 0 0 0 .15-1.289v-4.386c0-.116-.007-.228-.014-.336a5.547 5.547 0 0 0 -1.439-3.412 5.384 5.384 0 0 1 1.009.8 5.527 5.527 0 0 1 1.614 3.591c.007.108.014.223.014.335" fill="#fff"/></g><path d="m14.07 202.292c0 .337-.076.61-.169.61s-.169-.273-.169-.61.076-.61.169-.61.169.273.169.61" fill="#fff"/></g><ellipse cx="16.137" cy="10.806" fill="#fff" rx=".169" ry=".61" stroke="#000" stroke-linecap="round" stroke-linejoin="round" stroke-width=".699"/><path d="m17.773 202.292c0 .337-.076.61-.169.61s-.169-.273-.169-.61.076-.61.169-.61.169.273.169.61" fill="#fff" transform="translate(2.236 -191.486)"/><ellipse cx="19.841" cy="10.806" fill="#fff" rx=".169" ry=".61" stroke="#000" stroke-linecap="round" stroke-linejoin="round" stroke-width=".699"/><path d="m16.889 205.721a1.454 1.454 0 0 1 -2.274 0" fill="#fff" stroke="#000" stroke-linecap="round" stroke-linejoin="round" stroke-width=".699" transform="translate(2.236 -191.486)"/><path d="m21.293 200.258a7.621 7.621 0 0 1 -4.149-2.958 7.618 7.618 0 0 1 -6.241 3.248h-.7a5.551 5.551 0 0 1 11.092-.29" fill="#fff" transform="translate(2.236 -191.486)"/><path d="m21.293 200.258a7.621 7.621 0 0 1 -4.149-2.958 7.618 7.618 0 0 1 -6.241 3.248h-.7a5.551 5.551 0 0 1 11.092-.29z" fill="#fff" stroke="#000" stroke-linecap="round" stroke-linejoin="round" stroke-width=".699" transform="translate(2.236 -191.486)"/><path d="m10.564 28.137v2.015" fill="#1da064"/><path d="m10.564 28.137v2.015" fill="none" stroke="#000" stroke-linecap="round" stroke-linejoin="round" stroke-width=".699"/><path d="m25.416 28.137v2.015" fill="#1da064"/><path d="m25.416 28.137v2.015" fill="none" stroke="#000" stroke-linecap="round" stroke-linejoin="round" stroke-width=".699"/><path d="m17.069 200.737h-2.631a6.129 6.129 0 0 1 -3.117-.773l-1.121-.686 5.547-2.766 5.559 2.766-1.121.686a6.128 6.128 0 0 1 -3.116.773" fill="#fff" transform="translate(2.236 -191.486)"/><path d="m17.069 200.737h-2.631a6.129 6.129 0 0 1 -3.117-.773l-1.121-.686 5.547-2.766 5.559 2.766-1.121.686a6.128 6.128 0 0 1 -3.116.773z" fill="#fff" stroke="#000" stroke-linecap="round" stroke-linejoin="round" stroke-width=".699" transform="translate(2.236 -191.486)"/><path d="m21.308 199.824v.671c-.045-.049-.091-.1-.14-.147a5.826 5.826 0 0 0 -4.139-1.715h-2.549a5.823 5.823 0 0 0 -4.279 1.862v-.671a5.359 5.359 0 0 1 5.358-5.358h.388a5.36 5.36 0 0 1 5.361 5.358" fill="#fff" transform="translate(2.236 -191.486)"/><path d="m21.308 199.824v.671c-.045-.049-.091-.1-.14-.147a5.826 5.826 0 0 0 -4.139-1.715h-2.549a5.823 5.823 0 0 0 -4.279 1.862v-.671a5.359 5.359 0 0 1 5.358-5.358h.388a5.36 5.36 0 0 1 5.361 5.358z" fill="#fff" stroke="#000" stroke-linecap="round" stroke-linejoin="round" stroke-width=".699" transform="translate(2.236 -191.486)"/><path d="m11.535 20.785h12.566v9.366h-12.566z" fill="#fff"/><path d="m11.535 20.785h12.566v9.366h-12.566z" fill="#fff" stroke="#000" stroke-linecap="round" stroke-linejoin="round" stroke-width=".699"/><path d="m16.453 20.786h2.73v3.594h-2.73z" fill="#fff"/><path d="m16.453 20.786h2.73v3.594h-2.73z" fill="#fff" stroke="#000" stroke-linecap="round" stroke-linejoin="round" stroke-width=".699"/><path d="m9.3 222.579h-1.249a1.094 1.094 0 0 1 -1.095-1.094v-2.511a1.094 1.094 0 0 1 1.095-1.094h1.249a1.094 1.094 0 0 1 1.094 1.094v2.511a1.094 1.094 0 0 1 -1.094 1.094" fill="#fff" transform="translate(2.236 -191.486)"/><path d="m1.094 0h1.249a1.095 1.095 0 0 1 1.095 1.095v2.505a1.094 1.094 0 0 1 -1.094 1.1h-1.25a1.094 1.094 0 0 1 -1.094-1.1v-2.506a1.094 1.094 0 0 1 1.094-1.094z" fill="#fff" stroke="#000" stroke-linecap="round" stroke-linejoin="round" stroke-width=".699" transform="translate(9.192 26.395)"/><path d="m22.208 222.579h1.249a1.094 1.094 0 0 0 1.095-1.094v-2.511a1.094 1.094 0 0 0 -1.095-1.094h-1.249a1.094 1.094 0 0 0 -1.094 1.094v2.511a1.094 1.094 0 0 0 1.094 1.094" fill="#fff" transform="translate(2.236 -191.486)"/><path d="m1.094 0h1.249a1.1 1.1 0 0 1 1.1 1.1v2.5a1.094 1.094 0 0 1 -1.099 1.1h-1.25a1.094 1.094 0 0 1 -1.094-1.1v-2.506a1.094 1.094 0 0 1 1.094-1.094z" fill="#fff" stroke="#000" stroke-linecap="round" stroke-linejoin="round" stroke-width=".699" transform="translate(23.35 26.395)"/><path d="m0 0h35v35h-35z" fill="none"/></svg>