<svg height="35" viewBox="0 0 35 35" width="35" xmlns="http://www.w3.org/2000/svg"><path d="m22.754 4.676v17.324h-16.354v-21.65h12c1.345 1.345 2.961 2.945 4.354 4.326" fill="#fff" transform="translate(3.598 5.65)"/><path d="m22.754 4.676v17.324h-16.354v-21.65h12c1.345 1.345 2.961 2.95 4.354 4.326z" fill="none" stroke="#000" stroke-linecap="round" stroke-linejoin="round" stroke-width=".699" transform="translate(3.598 5.65)"/><path d="m24.657 4.675-4.326.025-.031-4.35c1.353 1.336 2.967 2.942 4.355 4.325" fill="#fff" transform="translate(1.696 5.65)"/><path d="m24.657 4.675-4.326.025-.031-4.35c1.355 1.336 2.969 2.942 4.357 4.325z" fill="none" stroke="#000" stroke-linecap="round" stroke-linejoin="round" stroke-width=".699" transform="translate(1.696 5.65)"/><path d="m11.997 12.548h2.622v2.622h-2.622z" fill="#fff"/><path d="m11.997 12.548h2.622v2.622h-2.622z" fill="none" stroke="#000" stroke-linecap="round" stroke-linejoin="round" stroke-width=".699"/><path d="m16.449 13.859h7.756" fill="none" stroke="#000" stroke-linecap="round" stroke-linejoin="round" stroke-width=".699"/><path d="m11.997 17.045h2.622v2.622h-2.622z" fill="#fff"/><path d="m11.997 17.045h2.622v2.622h-2.622z" fill="none" stroke="#000" stroke-linecap="round" stroke-linejoin="round" stroke-width=".699"/><path d="m16.449 18.356h7.756" fill="none" stroke="#000" stroke-linecap="round" stroke-linejoin="round" stroke-width=".699"/><path d="m11.997 21.542h2.622v2.622h-2.622z" fill="#fff"/><path d="m11.997 21.542h2.622v2.622h-2.622z" fill="none" stroke="#000" stroke-linecap="round" stroke-linejoin="round" stroke-width=".699"/><path d="m16.449 22.853h7.756" fill="none" stroke="#000" stroke-linecap="round" stroke-linejoin="round" stroke-width=".699"/><path d="m25.151 20.231h6.203v8.307h-6.203z" fill="#fff"/><path d="m25.151 20.231h6.203v8.307h-6.203z" fill="none" stroke="#000" stroke-linecap="round" stroke-linejoin="round" stroke-width=".699"/><path d="m18.178 20.231h6.973v8.307h-6.973z" fill="#fff"/><path d="m18.178 20.231h6.973v8.307h-6.973z" fill="none" stroke="#000" stroke-linecap="round" stroke-linejoin="round" stroke-width=".699"/><path d="m20.622 20.23h2.084v2.9h-2.084z" fill="#fff"/><g fill="none"><path d="m20.622 20.23h2.084v2.9h-2.084z" stroke="#000" stroke-linecap="round" stroke-linejoin="round" stroke-width=".699"/><path d="m0 0h35v35h-35z"/></g></svg>