<svg height="35" viewBox="0 0 35 35" width="35" xmlns="http://www.w3.org/2000/svg"><path d="m14.804 27.054h14.017v1.624h-14.017z" fill="#fff"/><path d="m14.804 27.054h14.017v1.624h-14.017z" fill="none" stroke="#000" stroke-linecap="round" stroke-linejoin="round" stroke-width=".699"/><path d="m4.558 46.281v1.619h4.616v22.886h1.626v-23.096a1.409 1.409 0 0 0 -1.41-1.409z" fill="#fff" transform="translate(4.038 -42.108)"/><path d="m4.558 46.281v1.619h4.616v22.886h1.626v-23.096a1.409 1.409 0 0 0 -1.41-1.409z" fill="none" stroke="#000" stroke-linecap="round" stroke-linejoin="round" stroke-width=".699" transform="translate(4.038 -42.108)"/><path d="m14.835 9.903h11.783v8.576h-11.783z" fill="#fff"/><path d="m14.835 9.903h11.783v8.576h-11.783z" fill="none" stroke="#000" stroke-linecap="round" stroke-linejoin="round" stroke-width=".699"/><path d="m17.986 55.452-1.3-1.01-1.3 1.01v-3.441h2.594z" fill="#fff" transform="translate(4.038 -42.108)"/><path d="m17.986 55.452-1.3-1.01-1.3 1.01v-3.441h2.594z" fill="none" stroke="#000" stroke-linecap="round" stroke-linejoin="round" stroke-width=".699" transform="translate(4.038 -42.108)"/><path d="m14.835 18.478h11.783v8.576h-11.783z" fill="#fff"/><path d="m14.835 18.478h11.783v8.576h-11.783z" fill="none" stroke="#000" stroke-linecap="round" stroke-linejoin="round" stroke-width=".699"/><g transform="translate(4.038 -42.108)"><path d="m17.986 64.028-1.3-1.01-1.3 1.01v-3.441h2.594z" fill="#fff"/><path d="m17.986 64.028-1.3-1.01-1.3 1.01v-3.441h2.594z" fill="none" stroke="#000" stroke-linecap="round" stroke-linejoin="round" stroke-width=".699"/><path d="m14.317 69.529a3.767 3.767 0 1 1 -3.766-3.766 3.766 3.766 0 0 1 3.766 3.766" fill="#fff"/><path d="m14.317 69.529a3.767 3.767 0 1 1 -3.766-3.766 3.766 3.766 0 0 1 3.766 3.766z" fill="none" stroke="#000" stroke-linecap="round" stroke-linejoin="round" stroke-width=".699"/><path d="m11.928 69.529a1.377 1.377 0 1 1 -1.377-1.377 1.377 1.377 0 0 1 1.377 1.377" fill="#cbcbcb"/><path d="m7.4 48.077h-3.849a.589.589 0 0 1 -.589-.588v-.789a.589.589 0 0 1 .589-.589h3.849a.589.589 0 0 1 .589.589v.792a.589.589 0 0 1 -.589.588" fill="#879cd8"/></g><rect fill="#fff" height="1.97" rx=".589" stroke="#000" stroke-linecap="round" stroke-linejoin="round" stroke-width=".699" width="5.027" x="7" y="4"/><path d="m0 0h35v35h-35z" fill="none"/></svg>