<?xml version="1.0" standalone="no"?>
<!DOCTYPE svg PUBLIC "-//W3C//DTD SVG 20010904//EN"
 "http://www.w3.org/TR/2001/REC-SVG-20010904/DTD/svg10.dtd">
<svg version="1.0" xmlns="http://www.w3.org/2000/svg"
 width="48.000000pt" height="48.000000pt" viewBox="0 0 48.000000 48.000000"
 preserveAspectRatio="xMidYMid meet">

<g transform="translate(0.000000,48.000000) scale(0.100000,-0.100000)"
fill="#000000" stroke="none">
<path d="M180 363 c-59 -31 -80 -74 -80 -164 0 -46 -4 -79 -10 -79 -5 0 -10
-7 -10 -15 0 -13 24 -15 160 -15 136 0 160 2 160 15 0 8 -4 15 -10 15 -6 0
-10 33 -10 78 0 59 -5 85 -20 109 -39 65 -117 89 -180 56z m110 -28 c43 -22
60 -63 60 -145 l0 -70 -110 0 -110 0 0 70 c0 81 16 122 58 144 35 20 66 20
102 1z"/>
<path d="M202 58 c8 -22 37 -34 55 -22 33 21 26 34 -17 34 -28 0 -40 -4 -38
-12z"/>
</g>
</svg>
