<svg xmlns="http://www.w3.org/2000/svg" width="26.12" height="35.612" viewBox="0 0 26.12 35.612">
    <g data-name="그룹 2937">
        <g data-name="그룹 2935">
            <path data-name="패스 6932" d="M9.554 13.133h7.014a.553.553 0 0 0 0-1.106H9.554a.553.553 0 1 0 0 1.106" style="fill:#0b0e11"/>
            <path data-name="패스 6933" d="M19.4 16.082H6.72a.553.553 0 0 0 0 1.106H19.4a.553.553 0 0 0 0-1.106" style="fill:#0b0e11"/>
            <path data-name="패스 6934" d="M19.4 18.657H6.72a.553.553 0 0 0 0 1.106H19.4a.553.553 0 0 0 0-1.106" style="fill:#0b0e11"/>
            <path data-name="패스 6935" d="M19.4 21.233H6.72a.553.553 0 0 0 0 1.106H19.4a.553.553 0 0 0 0-1.106" style="fill:#0b0e11"/>
            <path data-name="패스 6936" d="M19.4 23.808H6.72a.553.553 0 0 0 0 1.106H19.4a.553.553 0 0 0 0-1.106" style="fill:#0b0e11"/>
            <path data-name="패스 6937" d="M19.4 26.383H6.72a.553.553 0 0 0 0 1.106H19.4a.553.553 0 0 0 0-1.106" style="fill:#0b0e11"/>
            <path data-name="패스 6938" d="M19.4 28.959H6.72a.553.553 0 0 0 0 1.106H19.4a.553.553 0 0 0 0-1.106" style="fill:#0b0e11"/>
        </g>
        <path data-name="패스 6939" d="M13.061 2.052a.554.554 0 0 0-.555.553v1.007a.554.554 0 0 0 1.107 0V2.605a.553.553 0 0 0-.552-.553" style="fill:#0b0e11"/>
        <path data-name="사각형 1534" style="fill:none" d="M0 0h26.12v35.612H0z"/>
        <path data-name="패스 6943" d="m-17994.713-5333.76 1.41.259.162-.675.18-24.159h21.082v24.834h.912l1.113-1.255v-26.332l-1.113-.447-4.645-.259h-1.732l-.881 1.462h-9.1v-1.462h-6.434l-.953.474-.479.771z" transform="translate(17995.559 5366)" style="fill:#fd9a03"/>
        <path data-name="패스 6930" d="M24.2 3.643h-4.276a.554.554 0 1 0 0 1.107H24.2a.814.814 0 0 1 .814.812v25.556a.815.815 0 0 1-.814.813h-.067V7.593a.553.553 0 0 0-.553-.552H2.54a.554.554 0 0 0-.554.552v24.338h-.067a.814.814 0 0 1-.813-.813V5.562a.813.813 0 0 1 .813-.812H6.2a.554.554 0 0 0 0-1.107H1.919A1.921 1.921 0 0 0 0 5.562v25.556a1.921 1.921 0 0 0 1.919 1.919h.067v2.022a.554.554 0 0 0 .554.553h21.041a.554.554 0 0 0 .553-.553v-2.022h.066a1.921 1.921 0 0 0 1.919-1.919V5.562A1.921 1.921 0 0 0 24.2 3.643M3.093 8.147h19.935v26.359H3.093z" style="fill:#0b0e11"/>
        <path data-name="패스 6931" d="M9.053 6.243h8.014A1.439 1.439 0 0 0 18.5 4.806V3.9a1.439 1.439 0 0 0-1.437-1.436.331.331 0 0 1-.331-.331v-.7A1.439 1.439 0 0 0 15.3 0h-4.48a1.439 1.439 0 0 0-1.437 1.437v.7a.331.331 0 0 1-.33.331A1.438 1.438 0 0 0 7.617 3.9v.9a1.438 1.438 0 0 0 1.436 1.443m8.014-2.671a.33.33 0 0 1 .33.33v.9a.331.331 0 0 1-.33.331H9.053a.331.331 0 0 1-.331-.331V3.9a.331.331 0 0 1 .331-.33 1.439 1.439 0 0 0 1.437-1.435v-.7a.331.331 0 0 1 .33-.331h4.48a.331.331 0 0 1 .331.331v.7a1.439 1.439 0 0 0 1.437 1.437" style="fill:#0b0e11"/>
    </g>
</svg>
