<svg xmlns="http://www.w3.org/2000/svg" width="28.082" height="35.103" viewBox="0 0 28.082 35.103">
    <defs>
        <clipPath id="g7gh5s82ta">
            <path data-name="사각형 1535" style="fill:none" d="M0 0h28.082v35.103H0z"/>
        </clipPath>
    </defs>
    <g data-name="그룹 2936">
        <path data-name="패스 6944" d="M-17879.34-5359.567c-.08.184-.49 2.309-.49 2.309l.49 3.275s1.482 4.388 1.707 4.33a33.845 33.845 0 0 0 4.338-2.644c-.1-.161-3.121-2.355-3.121-2.355l-1.752-2.811z" transform="translate(17885 5365)" style="fill:#fd9a03"/>
        <path data-name="패스 6945" d="m-17867.246-5359.744-2.062 3.6-2.277 2.6-1 .917-.219.863s3.666 2.084 3.783 2 .863-1.212.863-1.212 1.557-5.672 1.559-5.869-.647-2.899-.647-2.899z" transform="translate(17885 5365)" style="fill:#fd9a03"/>
        <g data-name="그룹 2928">
            <g data-name="그룹 2927" style="clip-path:url(#g7gh5s82ta)">
                <path data-name="패스 6940" d="M23.4 28.825V6.864a2.813 2.813 0 0 0-2.181-2.756l-3.176-.828C17.013 1.214 14.7 0 11.7 0S6.389 1.214 5.359 3.28L2.2 4.1A2.821 2.821 0 0 0 0 6.864v21.961a1.961 1.961 0 0 0 1.957 1.957h19.487a1.96 1.96 0 0 0 1.956-1.957m-7.611-14.284-3.034-1.77a13.233 13.233 0 0 0 4.949-6.5 16.46 16.46 0 0 1-1.915 8.267M11.7 12.154a12.062 12.062 0 0 1-4.864-5.941A6.125 6.125 0 0 1 11.7 4.32a6.115 6.115 0 0 1 4.863 1.9 12.058 12.058 0 0 1-4.863 5.934m-6-5.881a13.229 13.229 0 0 0 4.949 6.5l-3.034 1.77A16.451 16.451 0 0 1 5.7 6.273m6-5.193c2.759 0 4.747 1.083 5.512 2.98-.071.337-.15.672-.247 1A7.478 7.478 0 0 0 11.7 3.24a7.5 7.5 0 0 0-5.264 1.819c-.1-.329-.176-.663-.247-1 .764-1.9 2.753-2.98 5.512-2.98M1.08 28.825V6.864a1.75 1.75 0 0 1 1.373-1.711l2.454-.64c-.8 3.029-.136 6.734 1.99 11.028a.54.54 0 0 0 .724.243l.032-.017 4.047-2.361 4.048 2.361a.54.54 0 0 0 .756-.227c2.126-4.294 2.793-8 1.99-11.028l2.469.644a1.743 1.743 0 0 1 1.358 1.707v21.962a.879.879 0 0 1-.877.877H1.957a.879.879 0 0 1-.877-.877" style="fill:#0b0e11"/>
                <path data-name="패스 6941" d="m25.886 8.424-1.13-.261-.243 1.053 1.13.261A1.743 1.743 0 0 1 27 11.184v21.961a.879.879 0 0 1-.877.877H6.637a.879.879 0 0 1-.877-.877v-1.1H4.68v1.1A1.961 1.961 0 0 0 6.637 35.1h19.487a1.96 1.96 0 0 0 1.956-1.957V11.184a2.818 2.818 0 0 0-2.2-2.76" style="fill:#0b0e11"/>
                <circle data-name="타원 397" cx=".72" cy=".72" r=".72" transform="translate(11.341 16.021)" style="fill:#0b0e11"/>
                <circle data-name="타원 398" cx=".72" cy=".72" r=".72" transform="translate(11.341 19.981)" style="fill:#0b0e11"/>
                <circle data-name="타원 399" cx=".72" cy=".72" r=".72" transform="translate(11.341 23.942)" style="fill:#0b0e11"/>
            </g>
        </g>
    </g>
</svg>
