<svg xmlns="http://www.w3.org/2000/svg" width="27.2" height="25.785" viewBox="0 0 27.2 25.785">
    <defs>
        <clipPath id="ntrquwbi1a">
            <path data-name="사각형 860" style="fill:#fff;stroke:#fff;stroke-width:.4px" d="M0 0h27.2v25.785H0z"/>
        </clipPath>
    </defs>
    <g data-name="그룹 550">
        <g data-name="그룹 549" style="clip-path:url(#ntrquwbi1a)">
            <path data-name="패스 5078" d="m28.888 8.778.277-.324a1.036 1.036 0 0 0-.2.209z" transform="translate(-13.191 -2.662)" style="fill:#fff;stroke:#fff;stroke-width:.4px"/>
            <path data-name="패스 5079" d="M23.759 19.274c-2.185.165-6.145 0-8.131-2.915-1.388-2.038-1.134-4.081-.864-6.244a22.977 22.977 0 0 0 .218-2.533l1.307-1.54a1.647 1.647 0 0 0 .1-.136 1.77 1.77 0 0 0-1.449-2.775 1.738 1.738 0 0 0-.921.277h-.114C11.322-.789 7.062-.028 5.694.211a4.657 4.657 0 0 0-1.032.3C-2.056 3.379.454 10.206.48 10.275l.68-.259c-.1-.254-2.3-6.24 3.788-8.836a3.947 3.947 0 0 1 .871-.253 7.053 7.053 0 0 1 7.33 2.643l.309.385L1.471 21.257a.727.727 0 0 0 1.153.884L14.21 8.491c-.042.516-.1 1.028-.168 1.534-.274 2.2-.558 4.478.985 6.743 1.854 2.723 5.183 3.276 7.582 3.276.437 0 .843-.018 1.2-.046zM14.351 4.943l-.743 1.146a.249.249 0 0 0 .394.3l.176-.194a8.53 8.53 0 0 1 .08 1.114L2.07 21.671l11.7-16.917.23-.332.406-.413a1.024 1.024 0 0 1 .531-.151 1.042 1.042 0 0 1 .854 1.636.936.936 0 0 1-.064.083l-.788.928a8.184 8.184 0 0 0-.149-.986l.127-.139a.484.484 0 0 0 .034-.045.36.36 0 0 0-.106-.5.368.368 0 0 0-.5.106" transform="translate(1.694 1.693)" style="fill:#fff;stroke:#fff;stroke-width:.4px"/>
        </g>
    </g>
</svg>
