<?xml version="1.0" standalone="no"?>
<!DOCTYPE svg PUBLIC "-//W3C//DTD SVG 20010904//EN"
 "http://www.w3.org/TR/2001/REC-SVG-20010904/DTD/svg10.dtd">
<svg version="1.0" xmlns="http://www.w3.org/2000/svg"
 width="48.000000pt" height="48.000000pt" viewBox="0 0 48.000000 48.000000"
 preserveAspectRatio="xMidYMid meet">

<g transform="translate(0.000000,48.000000) scale(0.100000,-0.100000)"
fill="#000000" stroke="none">
<path d="M146 334 l-86 -66 0 -114 0 -114 175 0 175 0 0 114 0 114 -77 59
c-43 33 -83 62 -89 66 -7 4 -51 -23 -98 -59z m165 -26 l69 -53 0 -97 0 -98
-145 0 -145 0 0 98 0 97 67 52 c38 29 72 53 77 53 5 0 40 -24 77 -52z"/>
</g>
</svg>
