<svg xmlns="http://www.w3.org/2000/svg" width="22" height="22" viewBox="0 0 22 22">
    <g data-name="그룹 4895">
        <g data-name="그룹 4450">
            <path data-name="패스 9021" d="M0 0h22v22H0z" style="fill:none"/>
            <path data-name="빼기 97" d="M9.6 18.282a.66.66 0 0 1-.476-.2L.2 9.16a.676.676 0 0 1 0-.955L8.4 0l8.645 1.236 1.232 8.644-8.206 8.205a.658.658 0 0 1-.471.197zm-.72-16.85L1.632 8.683 9.6 16.649 16.847 9.4l-.993-6.97zm3.268 6.282a1.58 1.58 0 1 1 1.116-.463 1.571 1.571 0 0 1-1.117.463z" transform="translate(1.664 2.366)" style="fill:#fff"/>
        </g>
    </g>
</svg>
