<svg xmlns="http://www.w3.org/2000/svg" width="33.27" height="33.658" viewBox="0 0 33.27 33.658">
    <defs>
        <clipPath id="mgeb6pdw3a">
            <path data-name="사각형 1533" style="fill:none" d="M0 0h33.27v33.658H0z"/>
        </clipPath>
    </defs>
    <g data-name="그룹 2938">
        <path data-name="패스 6942" d="M-18091.023-5350.289c.266.185 3.508 3.474 3.508 3.474l10.809-10.794s.156-.39 0-.5-3.117-3.011-3.117-3.011z" transform="translate(18106 5365)" style="fill:#fd9a03"/>
        <g data-name="그룹 2924">
            <g data-name="그룹 2923" style="clip-path:url(#mgeb6pdw3a)">
                <path data-name="패스 6928" d="M32.637 28.278h-8V17.037a.553.553 0 1 0-1.106 0v11.241h-5.887a.554.554 0 0 0-.553.553 3.719 3.719 0 1 1-7.438 0V10.31a4.8 4.8 0 0 0-1.79-3.721h12.348a.553.553 0 0 0 0-1.106H4.827A4.833 4.833 0 0 0 0 10.31a.554.554 0 0 0 .552.554h7.995v17.948a.106.106 0 0 0 0 .019 4.833 4.833 0 0 0 4.827 4.827h14.989a4.833 4.833 0 0 0 4.827-4.827.554.554 0 0 0-.553-.553M4.827 6.589a3.748 3.748 0 0 1 3.679 3.169H1.147a3.749 3.749 0 0 1 3.68-3.169m23.536 25.963H16.412a4.81 4.81 0 0 0 1.754-3.168h13.877a3.749 3.749 0 0 1-3.68 3.168" style="fill:#0b0e11"/>
                <path data-name="패스 6929" d="M31.211.556a2.013 2.013 0 0 0-2.779 0L27.2 1.786l-.049-.049a.557.557 0 0 0-.782 0l-1.084 1.087a.555.555 0 0 0 0 .782l.048.048-10.917 10.917a.561.561 0 0 0-.042.062.569.569 0 0 0-.077.12L11.93 20.7a.553.553 0 0 0 .727.714l2.166-.911 3.677-1.547a.59.59 0 0 0 .066-.045.568.568 0 0 0 .11-.073L29.6 7.917l.048.049a.553.553 0 0 0 .782 0l1.085-1.086a.557.557 0 0 0 0-.782l-.049-.048L32.7 4.819a1.968 1.968 0 0 0 0-2.778zm-1.558 3.681a.553.553 0 0 0-.782.782l1.47 1.47-.3.3-3.532-3.524-.046-.046.305-.3.047.048.685.685a.565.565 0 0 0 .782 0 .546.546 0 0 0 .162-.391.552.552 0 0 0-.162-.39l-.3-.3 1.23-1.23a.86.86 0 0 1 1.215 0l1.485 1.485a.861.861 0 0 1 0 1.215l-1.23 1.229zM13.969 18.565l1.041-2.618 2.307 2.307-2.576 1.084zm-.446 1.12.117.116-.2.083zm4.766-2.022-2.7-2.7L26.116 4.436l2.7 2.7z" style="fill:#0b0e11"/>
            </g>
        </g>
    </g>
</svg>
