<svg height="106.948" viewBox="0 0 187.744 106.948" width="187.744" xmlns="http://www.w3.org/2000/svg"><g fill="none"><path d="m43.128 30.606h50.172a11.846 11.846 0 0 1 11.845 11.847v1.881a11.846 11.846 0 0 1 -11.845 11.846h-80.453a11.846 11.846 0 1 0 0 23.692h144.017" transform="translate(1.354 26.076)"/><path d="m57.108 30.606h36.192a11.846 11.846 0 0 1 11.845 11.847v1.881a11.846 11.846 0 0 1 -11.845 11.846h-80.453a11.846 11.846 0 1 0 0 23.692h135.6" stroke="#fd9a03" stroke-dasharray="2.934 5.867" stroke-linejoin="round" stroke-width="2" transform="translate(0 26.076)"/><path d="m51.362 20.789c0 10.928-19.861 36.393-19.861 36.393s-19.861-25.465-19.861-36.393a19.861 19.861 0 0 1 39.722 0z" stroke="#000" stroke-linejoin="round" transform="translate(7.673 -.5)"/><path d="m32.724 14.461a7.208 7.208 0 1 1 -7.209-7.183 7.2 7.2 0 0 1 7.209 7.183" stroke="#000" transform="translate(13.187 5.136)"/><path d="m32.724 14.461a7.208 7.208 0 1 1 -7.209-7.183 7.2 7.2 0 0 1 7.209 7.183z" transform="translate(14.185 5.136)"/><path d="m126.064 42.161c0 16.037-29.144 53.4-29.144 53.4s-29.144-37.361-29.144-53.4a29.144 29.144 0 0 1 58.288 0z" stroke="#2d3036" stroke-linejoin="round" transform="translate(61.179 10.383)"/><path d="m98.715 32.875a10.578 10.578 0 1 1 -10.577-10.539 10.56 10.56 0 0 1 10.577 10.539" transform="translate(70.345 18.653)"/><ellipse cx="158.219" cy="51.528" rx="10.578" ry="10.539" stroke="#000" stroke-linejoin="round"/></g></svg>