<svg xmlns="http://www.w3.org/2000/svg" width="30.4" height="30.4" viewBox="0 0 30.4 30.4">
    <g data-name="그룹 424">
        <path data-name="패스 342" d="M0 0h30v30H0z" style="stroke:#fff;fill:none;stroke-width:.4px" transform="translate(.2 .2)"/>
        <path data-name="패스 343" d="M12.093 5.631 9.515 8.263H4.579V24.05h20.63V8.263h-4.936l-2.579-2.632zM11.026 3h7.736l2.579 2.631H26.5a1.3 1.3 0 0 1 1.289 1.316v18.419a1.3 1.3 0 0 1-1.289 1.316H3.289A1.3 1.3 0 0 1 2 25.366V6.947a1.3 1.3 0 0 1 1.289-1.316h5.158zm3.868 19.735a7.237 7.237 0 1 1 7.091-7.235 7.165 7.165 0 0 1-7.091 7.235zm0-2.631a4.606 4.606 0 1 0-4.513-4.6 4.559 4.559 0 0 0 4.513 4.6z" transform="translate(.306 .359)" style="fill:#909090;stroke:#fff"/>
    </g>
</svg>
