<svg height="20" viewBox="0 0 327 20" width="327" xmlns="http://www.w3.org/2000/svg"><rect fill="#d5d5d5" height="1.5" rx=".75" width="254" x="73" y="9.5"/><rect fill="#fd9a03" height="1.5" rx=".75" width="5" y="9.5"/><rect fill="#fd9a03" height="1.5" rx=".75" width="5" x="9" y="9.5"/><rect fill="#fd9a03" height="1.5" rx=".75" width="5" x="18" y="9.5"/><rect fill="#fd9a03" height="1.5" rx=".75" width="5" x="27" y="9.5"/><rect fill="#fd9a03" height="1.5" rx=".75" width="5" x="36" y="9.5"/><g fill="none"><path d="m311.01 11.324-3.865 2.132"/><path d="m13.116 12.134c-.936-2.244-.4-4.187 2.366-5.754l8.4-5.027c2.243-.937 4.818-.553 5.755 1.685-5.413 2.262-16.521 9.096-16.521 9.096z" transform="translate(297.361 -.278)"/><path d="m13.1 10.479a4.4 4.4 0 0 0 2.366 5.756l8.4 5.026c2.244.937 4.821.557 5.757-1.686-5.417-2.259-16.523-9.096-16.523-9.096z" transform="translate(297.381 -2.772)"/><path d="m42.413.75a4.067 4.067 0 1 0 4.066 4.067 4.067 4.067 0 0 0 -4.066-4.067z" transform="translate(260.654 -.25)"/><path d="m42.411 15.2a4.067 4.067 0 1 0 4.068 4.068 4.068 4.068 0 0 0 -4.068-4.068z" transform="translate(260.656 -3.834)"/><path d="m311.011 8.247-3.866-2.132"/><path d="m269.01 11.324-3.865 2.132"/><path d="m13.116 12.134c-.936-2.244-.4-4.187 2.366-5.754l8.4-5.027c2.243-.937 4.818-.553 5.755 1.685-5.413 2.262-16.521 9.096-16.521 9.096z" transform="translate(255.361 -.278)"/><path d="m13.1 10.479a4.4 4.4 0 0 0 2.366 5.756l8.4 5.026c2.244.937 4.821.557 5.757-1.686-5.417-2.259-16.523-9.096-16.523-9.096z" transform="translate(255.381 -2.772)"/><path d="m42.413.75a4.067 4.067 0 1 0 4.066 4.067 4.067 4.067 0 0 0 -4.066-4.067z" transform="translate(218.654 -.25)"/><path d="m42.411 15.2a4.067 4.067 0 1 0 4.068 4.068 4.068 4.068 0 0 0 -4.068-4.068z" transform="translate(218.656 -3.834)"/><path d="m269.011 8.247-3.866-2.132"/><path d="m226.01 11.324-3.865 2.132"/><path d="m13.116 12.134c-.936-2.244-.4-4.187 2.366-5.754l8.4-5.027c2.243-.937 4.818-.553 5.755 1.685-5.413 2.262-16.521 9.096-16.521 9.096z" transform="translate(212.361 -.278)"/><path d="m13.1 10.479a4.4 4.4 0 0 0 2.366 5.756l8.4 5.026c2.244.937 4.821.557 5.757-1.686-5.417-2.259-16.523-9.096-16.523-9.096z" transform="translate(212.381 -2.772)"/><path d="m42.413.75a4.067 4.067 0 1 0 4.066 4.067 4.067 4.067 0 0 0 -4.066-4.067z" transform="translate(175.654 -.25)"/><path d="m42.411 15.2a4.067 4.067 0 1 0 4.068 4.068 4.068 4.068 0 0 0 -4.068-4.068z" transform="translate(175.656 -3.834)"/><path d="m226.011 8.247-3.866-2.132"/><path d="m184.01 11.324-3.865 2.132"/><path d="m13.116 12.134c-.936-2.244-.4-4.187 2.366-5.754l8.4-5.027c2.243-.937 4.818-.553 5.755 1.685-5.413 2.262-16.521 9.096-16.521 9.096z" transform="translate(170.361 -.278)"/><path d="m13.1 10.479a4.4 4.4 0 0 0 2.366 5.756l8.4 5.026c2.244.937 4.821.557 5.757-1.686-5.417-2.259-16.523-9.096-16.523-9.096z" transform="translate(170.381 -2.772)"/><path d="m42.413.75a4.067 4.067 0 1 0 4.066 4.067 4.067 4.067 0 0 0 -4.066-4.067z" transform="translate(133.654 -.25)"/><path d="m42.411 15.2a4.067 4.067 0 1 0 4.068 4.068 4.068 4.068 0 0 0 -4.068-4.068z" transform="translate(133.656 -3.834)"/><path d="m184.011 8.247-3.866-2.132"/><path d="m142.01 11.324-3.865 2.132"/><path d="m13.116 12.134c-.936-2.244-.4-4.187 2.366-5.754l8.4-5.027c2.243-.937 4.818-.553 5.755 1.685-5.413 2.262-16.521 9.096-16.521 9.096z" transform="translate(128.361 -.278)"/><path d="m13.1 10.479a4.4 4.4 0 0 0 2.366 5.756l8.4 5.026c2.244.937 4.821.557 5.757-1.686-5.417-2.259-16.523-9.096-16.523-9.096z" transform="translate(128.381 -2.772)"/><path d="m42.413.75a4.067 4.067 0 1 0 4.066 4.067 4.067 4.067 0 0 0 -4.066-4.067z" transform="translate(91.654 -.25)"/><path d="m42.411 15.2a4.067 4.067 0 1 0 4.068 4.068 4.068 4.068 0 0 0 -4.068-4.068z" transform="translate(91.656 -3.834)"/><path d="m142.011 8.247-3.866-2.132"/><path d="m100.01 11.324-3.865 2.132"/><path d="m13.116 12.134c-.936-2.244-.4-4.187 2.366-5.754l8.4-5.027c2.243-.937 4.818-.553 5.755 1.685-5.413 2.262-16.521 9.096-16.521 9.096z" transform="translate(86.361 -.278)"/><path d="m13.1 10.479a4.4 4.4 0 0 0 2.366 5.756l8.4 5.026c2.244.937 4.821.557 5.757-1.686-5.417-2.259-16.523-9.096-16.523-9.096z" transform="translate(86.381 -2.772)"/><path d="m42.413.75a4.067 4.067 0 1 0 4.066 4.067 4.067 4.067 0 0 0 -4.066-4.067z" transform="translate(49.654 -.25)"/><path d="m42.411 15.2a4.067 4.067 0 1 0 4.068 4.068 4.068 4.068 0 0 0 -4.068-4.068z" transform="translate(49.656 -3.834)"/><path d="m100.011 8.247-3.866-2.132"/><path d="m57.01 11.324-3.865 2.132" stroke="#707070" stroke-linecap="round" stroke-linejoin="round"/></g><path d="m13.116 12.134c-.936-2.244-.4-4.187 2.366-5.754l8.4-5.027c2.243-.937 4.818-.553 5.755 1.685-5.413 2.262-16.521 9.096-16.521 9.096z" fill="#fff" stroke="#707070" stroke-linecap="round" stroke-linejoin="round" transform="translate(43.361 -.278)"/><path d="m13.1 10.479a4.4 4.4 0 0 0 2.366 5.756l8.4 5.026c2.244.937 4.821.557 5.757-1.686-5.417-2.259-16.523-9.096-16.523-9.096z" fill="#fff" stroke="#707070" stroke-linecap="round" stroke-linejoin="round" transform="translate(43.381 -2.772)"/><path d="m42.413.75a4.067 4.067 0 1 0 4.066 4.067 4.067 4.067 0 0 0 -4.066-4.067z" fill="none" stroke="#707070" stroke-linecap="round" stroke-linejoin="round" transform="translate(6.654 -.25)"/><path d="m42.411 15.2a4.067 4.067 0 1 0 4.068 4.068 4.068 4.068 0 0 0 -4.068-4.068z" fill="none" stroke="#707070" stroke-linecap="round" stroke-linejoin="round" transform="translate(6.656 -3.834)"/><path d="m57.011 8.247-3.866-2.132" fill="none" stroke="#707070" stroke-linecap="round" stroke-linejoin="round"/></svg>