<svg height="20" viewBox="0 0 327.5 20" width="327.5" xmlns="http://www.w3.org/2000/svg"><g fill="#fd9a03"><rect height="1.5" rx=".75" width="5" y="9.5"/><rect height="1.5" rx=".75" width="5" x="45" y="9.5"/><rect height="1.5" rx=".75" width="5" x="90" y="9.5"/><rect height="1.5" rx=".75" width="5" x="126" y="9.5"/><rect height="1.5" rx=".75" width="5" x="9" y="9.5"/><rect height="1.5" rx=".75" width="5" x="54" y="9.5"/><rect height="1.5" rx=".75" width="5" x="99" y="9.5"/><rect height="1.5" rx=".75" width="5" x="135" y="9.5"/><rect height="1.5" rx=".75" width="5" x="18" y="9.5"/><rect height="1.5" rx=".75" width="5" x="63" y="9.5"/><rect height="1.5" rx=".75" width="5" x="108" y="9.5"/><rect height="1.5" rx=".75" width="5" x="144" y="9.5"/><rect height="1.5" rx=".75" width="5" x="171" y="9.5"/><rect height="1.5" rx=".75" width="5" x="27" y="9.5"/><rect height="1.5" rx=".75" width="5" x="72" y="9.5"/><rect height="1.5" rx=".75" width="5" x="117" y="9.5"/><rect height="1.5" rx=".75" width="5" x="153" y="9.5"/><rect height="1.5" rx=".75" width="5" x="180" y="9.5"/><rect height="1.5" rx=".75" width="5" x="216" y="9.5"/><rect height="1.5" rx=".75" width="5" x="252" y="9.5"/><rect height="1.5" rx=".75" width="5" x="198" y="9.5"/><rect height="1.5" rx=".75" width="5" x="234" y="9.5"/><rect height="1.5" rx=".75" width="5" x="270" y="9.5"/><rect height="1.5" rx=".75" width="5" x="288" y="9.5"/><rect height="1.5" rx=".75" width="5" x="162" y="9.5"/><rect height="1.5" rx=".75" width="5" x="189" y="9.5"/><rect height="1.5" rx=".75" width="5" x="225" y="9.5"/><rect height="1.5" rx=".75" width="5" x="261" y="9.5"/><rect height="1.5" rx=".75" width="5" x="207" y="9.5"/><rect height="1.5" rx=".75" width="5" x="243" y="9.5"/><rect height="1.5" rx=".75" width="5" x="279" y="9.5"/><rect height="1.5" rx=".75" width="5" x="36" y="9.5"/><rect height="1.5" rx=".75" width="5" x="81" y="9.5"/></g><path d="m311.01 11.324-3.865 2.132" fill="none" stroke="#707070" stroke-linecap="round" stroke-linejoin="round"/><path d="m13.116 12.134c-.936-2.244-.4-4.187 2.366-5.754l8.4-5.027c2.243-.937 4.818-.553 5.755 1.685-5.413 2.262-16.521 9.096-16.521 9.096z" fill="none" stroke="#707070" stroke-linecap="round" stroke-linejoin="round" transform="translate(297.361 -.278)"/><path d="m13.1 10.479a4.4 4.4 0 0 0 2.366 5.756l8.4 5.026c2.244.937 4.821.557 5.757-1.686-5.417-2.259-16.523-9.096-16.523-9.096z" fill="none" stroke="#707070" stroke-linecap="round" stroke-linejoin="round" transform="translate(297.381 -2.772)"/><path d="m42.413.75a4.067 4.067 0 1 0 4.066 4.067 4.067 4.067 0 0 0 -4.066-4.067z" fill="none" stroke="#707070" stroke-linecap="round" stroke-linejoin="round" transform="translate(260.654 -.25)"/><path d="m42.411 15.2a4.067 4.067 0 1 0 4.068 4.068 4.068 4.068 0 0 0 -4.068-4.068z" fill="none" stroke="#707070" stroke-linecap="round" stroke-linejoin="round" transform="translate(260.656 -3.834)"/><path d="m311.011 8.247-3.866-2.132" fill="none" stroke="#707070" stroke-linecap="round" stroke-linejoin="round"/></svg>