<svg data-name="그룹 2754" xmlns="http://www.w3.org/2000/svg" width="30.25" height="30" viewBox="0 0 30.25 30">
    <path data-name="패스 2035" d="M0 0h30v30H0z" style="fill:none"/>
    <path data-name="패스 2036" d="M25.847 18.135v3.784h3.765v2.522h-3.765v3.784h-2.51v-3.784h-3.766v-2.523h3.765v-3.783zM25.857 3A1.249 1.249 0 0 1 27.1 4.252v11.36h-2.51V5.522H4.51v17.656l12.551-12.611 3.765 3.784v3.568l-3.765-3.784-9 9.044h9V25.7H3.245A1.249 1.249 0 0 1 2 24.449V4.252A1.258 1.258 0 0 1 3.245 3h22.612zM9.531 8.045a2.522 2.522 0 1 1-2.51 2.522 2.516 2.516 0 0 1 2.51-2.522z" transform="translate(.388 .582)" style="fill:#909090;stroke:#fff;stroke-width:.5px"/>
</svg>
