<svg xmlns="http://www.w3.org/2000/svg" width="27.263" height="13.508" viewBox="0 0 27.263 13.508">
    <path data-name="패스 8519" d="M12.259 1.905c-.241-.012-.48-.018-.712-.018-.929 0-3.955.1-3.955 1.348 0 1.283 3.295 1.346 3.955 1.346.217 0 .431 0 .636-.014 1.239-.055 3.317-.3 3.317-1.332 0-1.016-2.03-1.269-3.242-1.33M12.14 3.6c-.192.01-.391.014-.593.014a8.335 8.335 0 0 1-2.791-.38 8.272 8.272 0 0 1 2.791-.38c.215 0 .439 0 .664.016a7.022 7.022 0 0 1 2.123.364 7.132 7.132 0 0 1-2.194.366M25.919 0H13.982a.991.991 0 0 0-.3.051A47.106 47.106 0 0 0 11.547 0C5.809 0 0 1.111 0 3.236v6.736c0 2.125 5.809 3.236 11.547 3.236S23.094 12.1 23.094 9.972V6.685h2.825a1.047 1.047 0 0 0 1.044-1.046v-4.6A1.045 1.045 0 0 0 25.919 0m-3.793 6.685v3.287c0 .372-.793.889-2.346 1.338V8.377a.485.485 0 0 0-.969 0v3.18a26.08 26.08 0 0 1-2.892.464V8.956a.484.484 0 0 0-.967 0v3.155c-.893.071-1.868.117-2.923.128V9.158a.484.484 0 0 0-.967 0v3.081q-1.565-.018-2.892-.127V8.956a.484.484 0 0 0-.967 0v3.068a26.354 26.354 0 0 1-2.894-.461V8.377a.484.484 0 0 0-.967 0v2.943C1.771 10.869.967 10.345.967 9.972V4.617l.018.012.053.032c.055.036.115.069.174.1.026.014.049.03.075.042.061.034.125.067.192.1l.059.032c.087.042.176.081.269.121.02.01.042.018.061.026l.229.095c.032.01.061.022.093.034.077.03.156.059.237.087.026.008.049.018.077.026.1.038.213.071.324.107.022.006.045.012.067.02.091.028.184.055.279.081l.109.03c.089.026.182.049.275.073l.091.024.374.089.067.014a15.417 15.417 0 0 0 .445.095l.306.059c.034.006.069.012.1.02.136.024.275.049.415.071l.059.01c.123.02.245.04.368.057.043.008.087.014.13.02.109.016.219.032.33.045l.117.016c.146.02.3.038.447.055l.049.006c.134.016.269.03.405.043l.136.014.346.034c.042 0 .085.008.128.01.154.014.31.028.466.04h.047c.142.012.285.02.427.03.047 0 .095.006.144.008.117.008.233.014.35.02l.142.008c.158.008.318.014.478.02h.026c.152.006.3.01.459.014h.144c.119 0 .237 0 .356.006h.63c.678 0 1.346-.016 1.984-.043.182-.008.364-.018.548-.03.043 0 .089 0 .134-.008.176-.01.35-.022.526-.036h.03l.559-.045.127-.012c.17-.016.338-.034.508-.051l.055-.006c.186-.02.37-.042.553-.065l.119-.014c.162-.022.322-.043.482-.067l.079-.01c.18-.028.358-.055.534-.085l.111-.018c.15-.026.3-.053.445-.081l.1-.018.5-.1c.034-.008.067-.016.1-.022.136-.032.273-.063.405-.1a2.08 2.08 0 0 0 .107-.026c.154-.04.306-.079.455-.121l.087-.026c.125-.038.245-.075.364-.113.034-.012.069-.022.1-.034.136-.045.271-.093.4-.142l.067-.026c.109-.043.213-.087.316-.132L21.44 5c.117-.053.229-.107.336-.164l.042-.024c.093-.049.18-.1.265-.154l.043-.026zm-8.638-1.224c-.625.028-1.277.043-1.941.043C4.6 5.5.967 4.026.967 3.236S4.6.967 11.547.967c.706 0 1.437.018 2.17.053 5.414.271 8.408 1.482 8.408 2.216 0 .753-3.076 1.979-8.638 2.226M26 5.639a.077.077 0 0 1-.077.077h-2.829v-2.48a1.159 1.159 0 0 0-.016-.186.516.516 0 0 0-.011-.05c-.01-.043-.018-.085-.03-.125l-.032-.075a1.03 1.03 0 0 0-.04-.1c-.014-.028-.032-.055-.047-.081l-.049-.085c-.017-.028-.042-.055-.063-.083s-.038-.053-.059-.079-.049-.053-.075-.081-.045-.049-.071-.075l-.091-.079c-.028-.024-.051-.047-.079-.069s-.069-.053-.1-.079l-.087-.065c-.038-.026-.079-.051-.119-.075s-.061-.043-.095-.063l-.13-.073-.1-.059-.142-.071c-.038-.02-.071-.038-.109-.055s-.1-.047-.156-.069c-.038-.018-.075-.036-.115-.051s-.107-.043-.16-.065-.083-.036-.127-.051l-.174-.063-.128-.047c-.059-.022-.125-.042-.186-.061a2.195 2.195 0 0 0-.13-.043l-.19-.057-.15-.05h-.014 5.9a.078.078 0 0 1 .081.073z" transform="translate(.15 .15)" style="fill:#202427;stroke:#202427;stroke-width:.3px"/>
</svg>
