<svg data-name="그룹 3009" xmlns="http://www.w3.org/2000/svg" width="20" height="20" viewBox="0 0 20 20">
    <path data-name="패스 6976" d="M0 0h20v20H0z" style="fill:none"/>
    <path data-name="패스 6977" d="M11.5 6.609 8.669 8.926h-3v3.333h3l2.831 2.317zm-3.426 7.317H4.833A.833.833 0 0 1 4 13.092v-5a.833.833 0 0 1 .833-.833h3.241l4.412-3.61a.417.417 0 0 1 .681.322v13.242a.417.417 0 0 1-.681.323l-4.411-3.61zm8.312.492L15.2 13.233a3.333 3.333 0 0 0-.267-5.467l1.2-1.2a5 5 0 0 1 .253 7.852z" transform="translate(-.667 -.592)" style="fill:#707070"/>
</svg>
