<svg height="60" viewBox="0 0 60 60" width="60" xmlns="http://www.w3.org/2000/svg"><circle cx="30" cy="30" fill="#fd9a03" opacity=".08" r="30"/><g fill="none" stroke="#202427" stroke-linecap="round" stroke-linejoin="round" stroke-width=".8"><path d="m38.81 50.463a50.248 50.248 0 0 1 -10.987-1.43c.1-4.255.593-18.974.593-18.974" transform="translate(-8.518 -3.622)"/><path d="m53.629 1.055 6.832 3.973s5.257.6 10.079 25.462l.418 2.1a16.5 16.5 0 0 1 -5.027 1.25s-.822-2.727-1.413-4.217a45.323 45.323 0 0 1 -3.743-14.482s.488 14.718.593 18.974a50.248 50.248 0 0 1 -10.987 1.43" transform="translate(-20.12 11.295)"/><path d="m25.829 1.055-7.229 4.027s-5.257.6-10.078 25.462l-.418 2.1a16.484 16.484 0 0 0 5.026 1.256s.821-2.727 1.412-4.217a45.324 45.324 0 0 0 3.743-14.483" transform="translate(1.624 11.295)"/><path d="m54.525 1.055s.144 7.964-1.442 12.821-.729 21.67-.729 21.67" transform="translate(-21.016 11.295)"/><path d="m44.6 1.055s-.144 7.964 1.442 12.821.729 21.67.729 21.67" transform="translate(-17.143 11.295)"/><path d="m44.6.6a10.608 10.608 0 0 1 2.838-.43 11.894 11.894 0 0 1 3.217.43" transform="translate(-17.146 11.752)"/><path d="m44.6 2.291a8.3 8.3 0 0 1 2.836-.43 12.706 12.706 0 0 1 3.221.43" transform="translate(-17.149 10.88)"/><circle cx="27.98" cy="32.696" r=".509"/><circle cx="27.98" cy="37.096" r=".509"/><circle cx="27.98" cy="41.495" r=".509"/></g></svg>