<svg height="40" viewBox="0 0 40 40" width="40" xmlns="http://www.w3.org/2000/svg"><circle cx="20" cy="20" fill="#fd9a03" opacity=".08" r="20"/><g transform="translate(-40 -3320)"><path d="m0 0h24v24h-24z" fill="none" transform="translate(48 3327)"/><path d="m70.75 3347.751h-21.5v-1.5h2v-13.55a.749.749 0 0 1 .494-.7l9.669-3.519a.245.245 0 0 1 .084-.015.253.253 0 0 1 .253.251v5.134l6.485 2.162a.746.746 0 0 1 .513.712v9.527h2v1.5zm-9-12.322v10.82h5.5v-8.987zm-1.5-4.932-7.5 2.727v13.024h7.5z"/></g></svg>