<svg height="60" viewBox="0 0 60 60" width="60" xmlns="http://www.w3.org/2000/svg"><circle cx="30" cy="30" fill="#fd9a03" opacity=".08" r="30"/><g fill="none" stroke="#202427" stroke-linecap="round" stroke-linejoin="round" stroke-width=".8"><path d="m36.291 1.052 1.948 1.522 1.077 2.039-1.844 1.009" transform="translate(-3.628 7.681)"/><path d="m23.959 1.189-2.467 1.723-.92 1.765 1.843 1.009" transform="translate(3.721 7.617)"/><path d="m11.952 4.425-4.072 1.645a6.862 6.862 0 0 0 -2.819 2.975c-.563 1.5-1.626 5.587-4.895 23.22a3.768 3.768 0 0 0 3.759.94s4.593-13.473 4.856-17.581c0 0-.039-7.361-2.232-8.653" transform="translate(13.261 6.104)"/><path d="m40.288 4.425 4.072 1.645a6.862 6.862 0 0 1 2.819 2.976c.563 1.5 1.626 5.587 4.895 23.22a3.768 3.768 0 0 1 -3.759.94s-4.593-13.474-4.856-17.582c0 0 .039-7.361 2.232-8.653" transform="translate(-5.496 6.104)"/><path d="m12.09 25.456s1.047 3.61 1.4 5.748c.068.405-1.561 3.208-2.467 6.876-3.253 13.175-3.778 15.694-3.778 15.694a108.723 108.723 0 0 0 12.715.971c5.249-.053 12.813-.971 12.813-.971s-.525-2.52-3.779-15.695c-.906-3.668-2.535-6.471-2.467-6.876a56.922 56.922 0 0 1 1.485-5.748" transform="translate(9.951 -3.728)"/><path d="m34.169 7.9 1.931 1.7c-.265 1.982-4.457 3.066-4.457 3.066" transform="translate(-1.453 4.478)"/><path d="m24.715 7.513-2.191 1.856c.265 1.983 4.854 3.116 4.854 3.116" transform="translate(2.808 4.661)"/><path d="m29.1 9.05c4.7-7.674 2.474-8.413 2.474-8.413a6.942 6.942 0 0 0 -2.866-.472 4.394 4.394 0 0 0 -1.683.279 1.3 1.3 0 0 0 -.8 1.107 10.283 10.283 0 0 0 2.875 7.499" transform="translate(1.089 8.096)"/><path d="m26.4 3.738a9.376 9.376 0 0 1 2.926-.531 7.34 7.34 0 0 1 2.752.649" transform="translate(1.01 6.674)"/><path d="m31.659 31a.5.5 0 1 1 -.5-.5.5.5 0 0 1 .5.5z" transform="translate(-.996 -6.087)"/><path d="m31.659 22.357a.5.5 0 1 1 -.5-.5.5.5 0 0 1 .5.5z" transform="translate(-.996 -2.046)"/></g></svg>