<svg height="60" viewBox="0 0 60 60" width="60" xmlns="http://www.w3.org/2000/svg"><circle cx="30" cy="30" fill="#fd9a03" opacity=".08" r="30"/><g fill="none" stroke="#202427" stroke-linecap="round" stroke-linejoin="round" stroke-width=".8"><path d="m12.634 7.788s6.569-.379 8.144-.379c3.4 0 8.143.379 8.143.379s-5.486.654-8.089.651c-2.568-.002-8.198-.651-8.198-.651z" transform="translate(9.264 3.096)"/><path d="m21.269 21.674-.987 4.986-1.792 19.6a10.951 10.951 0 0 1 -3.85.174 18.755 18.755 0 0 1 -3.913-.718l1.086-29.316.977-6.515.327-2.173" transform="translate(8.784 3.173)"/><path d="m12.389 9.344s7.039.834 8.5.834c1.778 0 8.005-.611 8.415-.7" transform="translate(9.203 3.584)"/><path d="m14.257 9.5a8.165 8.165 0 0 1 -2.441 4.976" transform="translate(9.06 3.623)"/><path d="m24.533 9.677a7.279 7.279 0 0 0 2.385 4.512" transform="translate(12.265 3.668)"/><path d="m19.19 8.363-.045 13.31.968 4.987 1.787 19.6a23.579 23.579 0 0 0 4.457-.029 18.11 18.11 0 0 0 3.307-.515l-1.081-29.316-.977-6.515-.327-2.171" transform="translate(10.907 3.173)"/><path d="m20.593 10.01v5.809s-.054.978-1.411 1.086" transform="translate(10.917 3.752)"/></g></svg>