<svg height="60" viewBox="0 0 60 60" width="60" xmlns="http://www.w3.org/2000/svg"><circle cx="30" cy="30" fill="#fd9a03" opacity=".08" r="30"/><g fill="none" stroke="#202427" stroke-width=".8"><path d="m58.134 5.994s-1.019 6.625.151 10.737" stroke-miterlimit="10" transform="translate(-17.713 9.922)"/><path d="m36.609 27.74s.5 14.963.6 19.289a69.473 69.473 0 0 1 -11.066 1.019 73.172 73.172 0 0 1 -11.243-1.019c.106-4.326.6-19.289.6-19.289" stroke-linecap="round" stroke-linejoin="round" transform="translate(3.962 -1.086)"/><path d="m44.14.166 7.118 2.878s3.269 1.548 7.989 12.3l-5.664 2.9-2.175-4.459" stroke-linecap="round" stroke-linejoin="round" transform="translate(-10.837 12.872)"/><path d="m16.192 5.994s1.019 6.625-.151 10.737" stroke-miterlimit="10" transform="translate(3.387 9.922)"/><path d="m15.274.166-7.119 2.878s-3.269 1.548-7.989 12.296l5.664 2.9 2.17-4.458" stroke-linecap="round" stroke-linejoin="round" transform="translate(11.423 12.872)"/><path d="m27.818 1.435a5.144 5.144 0 0 0 4.7 3.214 5.332 5.332 0 0 0 4.882-3.214" stroke-miterlimit="10" transform="translate(-2.575 12.23)"/><path d="m37.41.166a3.7 3.7 0 0 1 -3.3 2.287 3.659 3.659 0 0 1 -3.265-2.287 17.891 17.891 0 0 0 3.3.562 8.761 8.761 0 0 0 3.265-.562z" stroke-linecap="round" stroke-linejoin="round" transform="translate(-4.107 12.872)"/><path d="m47.84 26.945-5.712 2.842" stroke-linecap="round" stroke-linejoin="round"/><path d="m12.233 26.872 5.712 2.842" stroke-linecap="round" stroke-linejoin="round"/></g></svg>