<svg height="60" viewBox="0 0 60 60" width="60" xmlns="http://www.w3.org/2000/svg"><circle cx="30" cy="30" fill="#fd9a03" opacity=".08" r="30"/><g fill="none" stroke="#202427" stroke-linecap="round" stroke-linejoin="round" stroke-width=".8"><path d="m.166 32.049a5.664 5.664 0 0 1 .06-.587c.551-2.777 4.643-23.319 4.883-29.662" transform="translate(13.834 13.156)"/><path d="m.166 32.049a94.4 94.4 0 0 0 15.882 1.333 82.2 82.2 0 0 0 15.252-1.333s-4.689-23.449-4.947-30.249" transform="translate(13.834 13.156)"/><path d="m8.285 5.816a85.531 85.531 0 0 0 11.03 1.173 74.756 74.756 0 0 0 10.516-1.155" transform="translate(10.472 11.495)"/><path d="m38.05 6.929a33.793 33.793 0 0 0 1.1 8.187" transform="translate(-1.854 11.034)"/><path d="m16.792 7.069a33.827 33.827 0 0 1 -1.1 8.187" transform="translate(7.406 10.976)"/><path d="m8.615 1.125a103.787 103.787 0 0 1 10.58-.96c3.766.011 10.651.96 10.651.96a75.861 75.861 0 0 1 -10.616 1.175 75.835 75.835 0 0 1 -10.615-1.175" transform="translate(10.335 13.835)"/></g></svg>