<svg height="318.814" viewBox="0 0 304.456 318.814" width="304.456" xmlns="http://www.w3.org/2000/svg"><g fill="#fff" stroke="#000"><path d="m209.363 271.616h24.407v44.12h-24.407z"/><path d="m233.769 271.616h34.146v44.12h-34.146z"/><path d="m218.228 271.616h6.182v11.908h-6.182z"/><path d="m226.998 245.516h14.433v26.09h-14.433z"/><path d="m241.431 245.516h20.192v26.09h-20.192z"/><path d="m231.832 245.516h4.478v6.915h-4.478z"/><path d="m256.566 293.676h19.754v22.061h-19.754z"/><path d="m276.318 293.676h27.637v22.061h-27.637z"/><path d="m263.179 293.676h6.129v9.464h-6.129z"/></g><g transform="translate(-39.719 -231.316)"><g stroke="#000"><path d="m7.443 85.506-.4 31.613-2.2-.318v-33.401z" fill="none" stroke-linejoin="round" transform="translate(42.785 290.428)"/><path d="m17.28 84.692-.615 30.739-9.632 2.25.4-31.613-2.563-2.082 10.4-1.7z" fill="none" stroke-linejoin="round" transform="translate(42.797 289.867)"/><path d="m8.587 101.718-.075.4a1.684 1.684 0 0 0 1.913 1.974l17.429-2.71a1.681 1.681 0 0 0 1.4-1.354l.095-.509a1.684 1.684 0 0 0 -1.923-1.971l-17.451 2.817a1.685 1.685 0 0 0 -1.387 1.353" fill="#fff" transform="translate(44.619 297.563)"/><path d="m49.891 376.316 10.115-2.248" fill="none"/><path d="m-20331.557 7117.748-75.547 12.357v-189.02l75.547-12.117h93.922v188.78z" fill="none" transform="translate(20447.322 -6653.273)"/><path d="m116.197 275.168v188.807" fill="none"/><g fill="none"><path d="m118.324 278h89v184h-89z" stroke="none"/><path d="m118.824 278.5h88v183h-88z" fill="none"/></g></g><path d="m104.978 73.238 17.8 25.837-9.922 3.815h-11.174l-5.071-20.684z" fill="#fff" transform="translate(78.406 264.275)"/><path d="m101.447 168.752c.072.98-.826 1.728-1.632 2.3a14.265 14.265 0 0 1 -4.417 1.473c-1.875.327-5.146-.635-7.122-1.3a31.07 31.07 0 0 1 -6.566-3.413c-2.255-1.437-6.677-4.3-8.516-6.244a4.87 4.87 0 0 1 -1.634-3.206 4.15 4.15 0 0 1 .667-1.93c.859-1.447 2.4-2.843 3.692-2.831 2.426.019 6.4 4.142 8.167 5.437a17.156 17.156 0 0 0 2.421 1.418l2.915 1.514c3.2 1.656 6.417 3.319 9.753 4.684a7.729 7.729 0 0 1 1.009.486 2.133 2.133 0 0 1 1.264 1.615" fill="#2f2d2c" transform="translate(43.158 377.342)"/><path d="m99.793 167.137a5.49 5.49 0 0 1 -1.259 1 14.394 14.394 0 0 1 -4.494 1.24c-1.887.219-5.1-.915-7.038-1.685a30.7 30.7 0 0 1 -6.376-3.764c-2.171-1.555-6.434-4.653-8.167-6.689a8.347 8.347 0 0 1 -.623-.814c.862-1.447 2.4-2.843 3.692-2.831 2.426.017 6.4 4.142 8.167 5.437a17.157 17.157 0 0 0 2.421 1.418q1.462.758 2.915 1.514c3.206 1.656 6.417 3.319 9.753 4.684a7.729 7.729 0 0 1 1.009.486" transform="translate(43.552 377.342)"/><path d="m96.115 153.531-6.145 14.4 6.687 10.807s5.5 2.862 2.217 4.6a19.679 19.679 0 0 1 -6.147 1.786 3.822 3.822 0 0 1 -3.127-.982l-9.139-8.451s-6.571-2.234-7.654-6.6c-.688-2.763 3.615-5.989 3.615-5.989l5.56-19.677z" fill="#fff" stroke="#000" transform="translate(44.81 363.02)"/><path d="m106.307 166.375s-1.887 10.543 1.654 12.41 12.107-2.491 17.545-1 14.772-.643 11.248-4.087c-2.506-2.448-10.044-6.894-14.931-9.683-1.986-1.134-4.833-16.139-4.833-16.139l-15.59 3.663z" fill="#fff" stroke="#000" transform="translate(85.144 369.285)"/><path d="m104.687 56.639s7.019 24.5-9.9 26.9l-4.942-21.839z" fill="#2f2d2c" stroke="#000" transform="translate(68.888 240.921)"/><path d="m110.491 61.106a1.818 1.818 0 0 0 -.022-1.165c-.173-.371-3.863-8.261-15.857-4.751a5.287 5.287 0 0 0 -3.254 3.391c-.272.768-.363 1.593-.669 2.349-1.3 3.216-6.135 4.535-4.684 8.908a5.919 5.919 0 0 0 .782 1.509 11.073 11.073 0 0 0 3.689 3.653c2.5 1.3 5.654.717 8.03-.8a16.17 16.17 0 0 0 3.755-3.49 14.447 14.447 0 0 1 2.537-2.932c2.6-1.861 4.927-3.29 5.693-6.672" fill="#2f2d2c" stroke="#000" transform="translate(63.107 237.62)"/><path d="m89.33 60.921-2.277 17.629a6.111 6.111 0 0 0 11.52 3.459 5.89 5.89 0 0 0 .448-1.158c.046-.176.087-.354.12-.534l1.5-8.812z" fill="#fff" transform="translate(64.906 246.946)"/><path d="m88.418 62.832c-.218 5.387 6.792 15.653 8.182 16.49a6.039 6.039 0 0 0 .445-1.158l1.627-9.346z" fill="#fff" transform="translate(66.875 249.634)"/><path d="m103.694 59.329a9.556 9.556 0 0 0 -7.332-3.047c-3.449.113-6.381 3.945-6.877 7.361l-1.074 7.418c-.123 4.08 2.869 7.507 9.033 8.879 5.36 1.194 6.761-8.86 6.761-8.86.59-3.132 1.189-9.659-.513-11.751" fill="#fff" transform="translate(66.869 240.412)"/><path d="m87.219 62.764a2.908 2.908 0 1 0 2.681-3.122 2.909 2.909 0 0 0 -2.677 3.122" fill="#fff" transform="translate(65.181 245.135)"/><path d="m95.174 60.6a.723.723 0 0 1 .53.847c-.041.3-.082.592-.12.888a.713.713 0 0 1 -.85.527.721.721 0 0 1 -.53-.847c.041-.3.082-.592.123-.886a.711.711 0 0 1 .847-.53" fill="#1a1a1a" transform="translate(74.472 246.473)"/><path d="m92.664 60.181a.8.8 0 0 1 .586.938c-.045.328-.091.655-.133.983a.789.789 0 0 1 -.94.583.8.8 0 0 1 -.586-.938c.045-.328.091-.655.136-.98a.787.787 0 0 1 .938-.586" fill="#1a1a1a" transform="translate(71.435 245.758)"/><path d="m96.818 60.058a4.041 4.041 0 0 0 -2.175-.681c-.681-.009-.754 1.049-.067 1.061a2.978 2.978 0 0 1 1.64.5c.573.377 1.175-.5.6-.877" fill="#1a1a1a" transform="translate(74.611 244.628)"/><path d="m94.5 59.143a2.987 2.987 0 0 0 -2.741.2c-.6.376-.122 1.379.486 1a1.954 1.954 0 0 1 1.893-.147c.655.284 1.015-.771.361-1.052" fill="#1a1a1a" transform="translate(71.066 244.342)"/><path d="m97.3 63c-1.343 1.167-4.029.5-5.226-.592-.412-.375-1.081.193-.664.57 1.565 1.43 4.71 2.207 6.46.686a.438.438 0 0 0 -.57-.664" fill="#1a1a1a" transform="translate(70.648 251.05)"/><path d="m87.942 65.2s-.826 3.023 1.442 2.763 7.286-2.578 8.027-5.736 3.62-3.791 4.665-3.18-.277-2.479-.277-2.479l-7.012-1.492-7.06 5.878.4 3.538" fill="#2f2d2c" transform="translate(65.91 238.719)"/><path d="m133.8 92.822-5.04 30.872-15.118.024c-7.187 34.82-20.912-.024-20.912-.024l-8.184.082s-7.052-23.516-7.563-39.869c.575-4.227 1.247-7.069 2.007-7.83 4.535-4.535 19.16-7.895 19.16-7.895s7.936 17.21 9.864 17.915 7.837-16.656 7.837-16.656 16.666 6.446 17.366 12.726c.149 1.331.351 5.271.582 10.656" fill="#fff" transform="translate(50.793 257.162)"/><path d="m95.644 88.282c1.93.705 7.837-16.659 7.837-16.659a4.235 4.235 0 0 1 -2.51-3.416c-6.28 4.886-11.85-1.579-11.85-1.579a4.3 4.3 0 0 1 -3.346 3.74s7.938 17.208 9.869 17.913" fill="#fff" transform="translate(63.162 254.978)"/><path d="m93.772 91.328 44.214-.084s27.36 120.376 30.525 136.6c-11.763 7.548-21.6 12.483-36.107 9.813l-10.324-94.98a.166.166 0 0 0 -.332 0l-5.064 35.958-12.906 55.715s-20.293-.048-33.354-11.522l15.942-57.635z" fill="#2f2d2c" stroke="#000" transform="translate(41.562 289.61)"/><path d="m113.517 155.487s-3.334 7.681-3.529 11.284l8.063 1.083 1.846-8.432z" fill="#2f2d2c" transform="translate(97.228 380)"/><path d="m135.254 159.656s-30.651.154-31.842 1.986-1.086 2.571 1.336 2.621 30.412-1.088 30.988-2.573 1.035-2.046-.481-2.034" fill="#2f2d2c" transform="translate(86.935 385.866)"/><path d="m86.752 154.722s-9 6.073-10.384 10.771l7.346 2.845 6.8-7.134z" fill="#2f2d2c" transform="translate(49.929 378.923)"/><path d="m153.636 360.238h29.748v33.219h-29.748z" fill="#fff" stroke="#000"/><path d="m183.386 360.238h41.617v33.219h-41.617z" fill="#fff" stroke="#000"/><path d="m163.599 360.238h9.231v14.252h-9.231z" fill="#fff" stroke="#000"/><path d="m95.385 90.28 25.6 12.266h6.8s4.552-2.968 5.144-1.581-2.176 4.239-2.176 4.239l-13.058 6.643s-27.7-3.76-32.449-8.9z" fill="#fff" transform="translate(62.406 288.254)"/><path d="m95.8 92.234 12.646 24.522s-2.977 12.235-11.115 14.923c0 0-13.847-8.79-21.28-42.031 0 0-1.148-14.75 4.383-18.187" fill="#fff" transform="translate(49.341 261.778)"/><path d="m153.47 370.156-9.951-23.673" fill="none" stroke="#000" stroke-linecap="round" stroke-miterlimit="10"/><path d="m110.5 96.645h8.042s-1.711 2.193-3.541 2.291c-1.317.07-15.383 1.088-15.383 1.088l8.309-3.661z" fill="#fff" transform="translate(82.646 296.812)"/><path d="m110.031 97.488h5.656a.924.924 0 0 1 .479 1.714 3.54 3.54 0 0 1 -1.634.578c-1.317.07-15.383 1.088-15.383 1.088l8.309-3.661z" fill="#fff" transform="translate(81.98 297.999)"/><path d="m109.106 98.739h5.656a.924.924 0 0 1 .479 1.714 3.539 3.539 0 0 1 -1.634.578c-1.317.07-14.89.493-14.89.493l2.722-3.907z" fill="#fff" transform="translate(81.373 298.577)"/><path d="m99.149 92.341a123.373 123.373 0 0 0 .989-16.529" fill="none" stroke="#000" stroke-linecap="round" stroke-miterlimit="10" transform="translate(81.98 267.899)"/><path d="m121.1 91.565-.026 3s-6.415-.13-6.174 1.177c.248 1.348 5.589 1.536 5.589 1.536s-6.073-.737-5.75.72 5.671 1.545 5.671 1.545-6.966-.029-5.266 2c.741.407 3.839.4 4.942.351 0 0-5.671 1.016-4.215 1.779.859.452 4.479.638 5.64.712a1.585 1.585 0 0 0 1.67-1.293c.421-2.3 1.143-6.87.546-8.48a5.751 5.751 0 0 0 -2.626-3.047" fill="#e4e4e4" stroke="#000" transform="translate(103.902 290.062)"/><path d="m99.578 65.73s-7.787 4.824-9.972 17.511a31.255 31.255 0 0 1 -10.937 19.03s17.978 1.531 20.91-10.28 3.63-14.276 0-26.26" fill="#1a1a1a" transform="translate(53.164 253.712)"/><path d="m-20625.76 6984.773c-.447.138-19.895 3.393-20.691 13.495s-2 11.808 2.945 25.15 14.057 27.085 17.734 29.093 10.846-15.151 10.846-15.151-9.582-18.9-11.26-25.212" fill="none" stroke="#000" transform="translate(20772.668 -6658.862)"/><path d="m-20616.457 6968.726c0 .185 2.6 21.362-6.146 20.331" fill="none" stroke="#000" stroke-linecap="round" transform="translate(20787.408 -6668.481)"/><path d="m-20622.049 6981.36s-2.588 4.914 2.8 6.929 13.9 7.946 16.232 11.383 14.592 21.69 14.592 21.69" fill="none" stroke="#000" transform="translate(20787.365 -6660.909)"/><path d="m1.851 4.79-1.851.262.215-5.052z" transform="matrix(.99254615 .12186934 -.12186934 .99254615 166.552 307.226)"/><path d="m-20629.094 6971.913s-2.031 1.913-1.027 3.487 1.352 1.469 1.352 1.469l-1.162 9.271" fill="none" stroke="#000" stroke-linecap="round" stroke-linejoin="round" transform="translate(20782.731 -6666.572)"/><path d="m-20628.881 6995.664 3.559 5.824s.768 1 1.543-.246 6.834-15.951 6.834-15.951" fill="none" stroke="#000" stroke-linecap="round" stroke-linejoin="round" transform="translate(20783.645 -6658.552)"/><path d="m-20631.8 7031.93s21.314 7.292 30.035 7.438a105.908 105.908 0 0 0 15.939-.959s1.074-1.128.971-1.614 1.74-1.008 1.309-2.011 3.475-1.427 2.818-2.252-8.084 0-8.084 0l2.256-3.563s-.07-1.224-1.156-1.1-4.117 2.063-4.117 2.063h-6.93l-25.594-12.18" fill="none" stroke="#000" transform="translate(20781.893 -6639.087)"/><path d="m-20626.727 6979.626s4.578 3.033 6.945 2.984" fill="none" stroke="#000" stroke-linecap="round" transform="translate(20784.933 -6661.947)"/><rect fill="#fff" height="21.228" rx="2" stroke="#000" width="33.154" x="233.56" y="302.651"/><path d="m210.015 22.3-16.577 10.614-16.577-10.614" fill="none" stroke="#000" stroke-miterlimit="10" transform="translate(56.699 281.351)"/><path d="m217.89 22.306a10.842 10.842 0 1 1 -10.842-10.842 10.841 10.841 0 0 1 10.842 10.842" fill="#fd9a03" transform="translate(63.258 276.678)"/><path d="m202.191 18.332 3.145-2.839v11.814" fill="none" stroke="#fff" stroke-linecap="round" stroke-linejoin="round" stroke-width="1.115" transform="translate(65.285 278.043)"/><path d="m-20207.229 6851.668s-2.379-26.628 22.74-26.353c6.934.077 11.7 3.334 15.205 4.241 6.561 1.7 12.623 2.144 22.168-5.13 2.4-1.828 6.729-9.8 6.729-9.8s4.785-9.361 6.041-15.861" fill="none" stroke="#fd9a03" stroke-dasharray="2.93 5.87" stroke-width="2" transform="translate(20461.379 -6567.264)"/></g></svg>