<svg xmlns="http://www.w3.org/2000/svg" width="32.754" height="39.669" viewBox="0 0 32.754 39.669">
    <defs>
        <clipPath id="rv1cxnosqa">
            <path data-name="사각형 1183" style="fill:#fff" d="M0 0h32.754v39.669H0z"/>
        </clipPath>
    </defs>
    <g data-name="그룹 2064">
        <g data-name="그룹 2063" style="clip-path:url(#rv1cxnosqa)">
            <path data-name="패스 5972" d="M7.34 45.113c-4 0-7.254-2.374-7.254-5.294s3.254-5.294 7.254-5.294 7.254 2.374 7.254 5.294-3.254 5.294-7.254 5.294m0-9.324c-3.3 0-5.99 1.808-5.99 4.03s2.688 4.03 5.99 4.03 5.99-1.808 5.99-4.03-2.687-4.03-5.99-4.03" transform="translate(-.014 -5.444)" style="fill:#fff"/>
            <path data-name="패스 5973" d="M7.856 43.634c-2.479 0-4.5-1.448-4.5-3.227s2.016-3.227 4.5-3.227 4.5 1.448 4.5 3.227-2.016 3.227-4.5 3.227m0-6.033c-2.246 0-4.074 1.258-4.074 2.806s1.828 2.806 4.074 2.806 4.074-1.258 4.074-2.806S10.1 37.6 7.856 37.6" transform="translate(-.53 -5.863)" style="fill:#fff"/>
            <path data-name="패스 5974" d="M8.2 42.7c-1.478 0-2.681-.875-2.681-1.951S6.718 38.8 8.2 38.8s2.681.874 2.681 1.949S9.674 42.7 8.2 42.7m0-3.479c-1.247 0-2.26.686-2.26 1.528s1.013 1.53 2.26 1.53 2.26-.686 2.26-1.53-1.018-1.532-2.26-1.532" transform="translate(-.87 -6.118)" style="fill:#fff"/>
            <path data-name="패스 5975" d="M14.654 34.7H13.39c0-2.251-2.721-4.082-6.064-4.082S1.263 32.446 1.263 34.7H0V4.607h.073C.56 1.979 3.6 0 7.326 0s6.766 1.979 7.253 4.607h.066l.008.632zm-7.328-5.348A8.331 8.331 0 0 1 13.39 31.7l-.007-26.441c-.071-2.2-2.787-4-6.056-4s-5.985 1.792-6.056 4l-.007.221V31.7a8.328 8.328 0 0 1 6.063-2.348" style="fill:#fff"/>
            <path data-name="패스 5976" d="M34.125 41.045H8.7v-1.263h24.162V9.989H15.639V8.726h18.486z" transform="translate(-1.372 -1.376)" style="fill:#fff"/>
        </g>
    </g>
</svg>
