<svg data-name="그룹 2127" xmlns="http://www.w3.org/2000/svg" width="28.082" height="35.103" viewBox="0 0 28.082 35.103">
    <defs>
        <clipPath id="m41hcsy0aa">
            <path data-name="사각형 1212" style="fill:#fff" d="M0 0h28.082v35.103H0z"/>
        </clipPath>
    </defs>
    <g data-name="그룹 2126" style="clip-path:url(#m41hcsy0aa)">
        <path data-name="패스 5990" d="M23.4 28.825V6.864a2.814 2.814 0 0 0-2.181-2.756l-3.176-.828C17.013 1.214 14.7 0 11.7 0S6.389 1.214 5.359 3.28L2.2 4.1A2.82 2.82 0 0 0 0 6.864v21.961a1.96 1.96 0 0 0 1.957 1.957h19.487a1.96 1.96 0 0 0 1.956-1.957m-7.611-14.284-3.034-1.77a13.231 13.231 0 0 0 4.949-6.5 16.456 16.456 0 0 1-1.915 8.267M11.7 12.154a12.058 12.058 0 0 1-4.864-5.941A6.127 6.127 0 0 1 11.7 4.32a6.114 6.114 0 0 1 4.863 1.9 12.059 12.059 0 0 1-4.863 5.934m-6-5.881a13.229 13.229 0 0 0 4.949 6.5l-3.034 1.77A16.45 16.45 0 0 1 5.7 6.273m6-5.193c2.759 0 4.747 1.083 5.512 2.98-.071.337-.15.672-.247 1A7.481 7.481 0 0 0 11.7 3.24a7.5 7.5 0 0 0-5.264 1.819c-.1-.329-.176-.663-.247-1 .764-1.9 2.753-2.98 5.512-2.98M1.08 28.825V6.864a1.749 1.749 0 0 1 1.373-1.711l2.454-.64c-.8 3.029-.136 6.734 1.99 11.028a.54.54 0 0 0 .756.226l4.047-2.361 4.048 2.361a.538.538 0 0 0 .272.074.545.545 0 0 0 .155-.023.54.54 0 0 0 .329-.278c2.126-4.294 2.793-8 1.99-11.028l2.469.644a1.743 1.743 0 0 1 1.358 1.707v21.962a.878.878 0 0 1-.877.877H1.957a.878.878 0 0 1-.877-.877" style="fill:#fff"/>
        <path data-name="패스 5991" d="m34.206 22.935-1.13-.261-.243 1.053 1.13.261a1.744 1.744 0 0 1 1.358 1.707v21.961a.878.878 0 0 1-.877.877H14.957a.878.878 0 0 1-.877-.877v-1.1H13v1.1a1.96 1.96 0 0 0 1.957 1.957h19.487a1.96 1.96 0 0 0 1.956-1.957V25.695a2.819 2.819 0 0 0-2.2-2.76" transform="translate(-8.32 -14.511)" style="fill:#fff"/>
        <path data-name="패스 5992" d="M32.22 44.5a.72.72 0 1 0 .72.72.72.72 0 0 0-.72-.72" transform="translate(-20.159 -28.479)" style="fill:#fff"/>
        <path data-name="패스 5993" d="M32.22 55.5a.72.72 0 1 0 .72.72.72.72 0 0 0-.72-.72" transform="translate(-20.159 -35.519)" style="fill:#fff"/>
        <path data-name="패스 5994" d="M32.22 66.5a.72.72 0 1 0 .72.72.72.72 0 0 0-.72-.72" transform="translate(-20.159 -42.558)" style="fill:#fff"/>
    </g>
</svg>
