<svg xmlns="http://www.w3.org/2000/svg" width="54" height="54" viewBox="0 0 54 54">
    <g data-name="그룹 3097">
        <g data-name="패스 6015" style="fill:none">
            <path d="M27 0A27 27 0 1 1 0 27 27 27 0 0 1 27 0z" style="stroke:none"/>
            <path d="M27 1A25.915 25.915 0 0 0 8.615 8.615 25.915 25.915 0 0 0 1 27a25.915 25.915 0 0 0 7.615 18.385A25.915 25.915 0 0 0 27 53a25.915 25.915 0 0 0 18.385-7.615A25.915 25.915 0 0 0 53 27a25.915 25.915 0 0 0-7.615-18.385A25.915 25.915 0 0 0 27 1m0-1c14.912 0 27 12.088 27 27S41.912 54 27 54 0 41.912 0 27 12.088 0 27 0z" style="fill:#fd9a03;stroke:none"/>
        </g>
        <path data-name="패스 6088" d="M7.011 0 0 7l7.01 7 .99-.989L1.981 7 8 .99z" transform="rotate(180 16 17)" style="fill:#fd9a03"/>
    </g>
</svg>
