<svg xmlns="http://www.w3.org/2000/svg" width="28" height="28" viewBox="0 0 28 28">
    <path data-name="빼기 74" d="M14.018 27.998h-.016a14 14 0 1 1 14-14 14.22 14.22 0 0 1-.215 2.464l-2.1-2.093A11.7 11.7 0 0 0 14 2.305a11.685 11.685 0 0 0-9.838 5.367A11.7 11.7 0 0 0 14 25.696a11.791 11.791 0 0 0 5.068-1.16 5.931 5.931 0 0 0 1.762 1.686 13.965 13.965 0 0 1-6.812 1.776zm9.977-4.284a2.587 2.587 0 0 1-1.734-.665 2.58 2.58 0 0 1-.227-3.594l.139-.15 1.822-1.82 1.824 1.825a2.58 2.58 0 0 1-1.824 4.4zm-6.121-2.186a11.071 11.071 0 0 0-3.871-.67 11.225 11.225 0 0 0-3.877.665L9.11 20.6a6.893 6.893 0 0 1 4.881-2.047h.012A6.922 6.922 0 0 1 18.89 20.6l-1.016.927zm1.123-6.377a1.866 1.866 0 1 1 1.869-1.866 1.869 1.869 0 0 1-1.868 1.867zm-10 0a1.866 1.866 0 1 1 1.873-1.866 1.869 1.869 0 0 1-1.872 1.867z"/>
</svg>
