<svg xmlns="http://www.w3.org/2000/svg" width="18" height="18" viewBox="0 0 18 18">
    <path data-name="빼기 111" d="M12396.962 13535.5h-12.923a.694.694 0 0 1-.693-.692v-12.231h-1.848v-1.383h4.616v-3a.694.694 0 0 1 .693-.693h7.386a.692.692 0 0 1 .689.693v3h4.615v1.383h-1.847v12.231a.692.692 0 0 1-.688.692zm-12.231-12.924v11.538h11.538v-11.538zm2.77-3.69v2.308h6v-2.308zm5.538 12h-1.386v-5.077h1.386v5.076zm-3.693 0h-1.383v-5.077h1.383v5.076z" transform="translate(-12381.498 -13517.499)" style="fill:#202427"/>
</svg>
