<svg xmlns="http://www.w3.org/2000/svg" width="22.5" height="22.5" viewBox="0 0 22.5 22.5">
    <g data-name="그룹 5870">
        <path data-name="빼기 108" d="M-1045.75-2962a8.76 8.76 0 0 1-8.751-8.75 8.76 8.76 0 0 1 8.751-8.75 8.76 8.76 0 0 1 8.75 8.75 8.76 8.76 0 0 1-8.75 8.75zm0-16.2a7.459 7.459 0 0 0-7.45 7.45 7.458 7.458 0 0 0 7.45 7.449 7.458 7.458 0 0 0 7.449-7.449 7.458 7.458 0 0 0-7.449-7.45zm-.9 10.7-3.465-3.464.92-.919 2.546 2.546 5.09-5.092.92.92-6.01 6.01z" transform="translate(1057 2982)" style="fill:#d5d5d5"/>
    </g>
</svg>
