<svg height="54" viewBox="0 0 54 54" width="54" xmlns="http://www.w3.org/2000/svg"><g fill="#fff"><path d="m27 53.5c-3.57769966 0-7.04810905-.70058823-10.31484032-2.08229828-3.15553951-1.33468246-5.98961925-3.24549103-8.42348957-5.67937088-2.43388033-2.43387222-4.34469008-5.26795196-5.67937016-8.42349243-1.38170994-3.26672745-2.08229995-6.73713875-2.08229995-10.31483841s.70059001-7.04810905 2.08229995-10.31484032c1.33468008-3.15553951 3.24548983-5.98961925 5.67937016-8.42348957 2.43387032-2.43388033 5.26795006-4.34469008 8.42348957-5.67937016 3.26673127-1.38170994 6.73714066-2.08229995 10.31484032-2.08229995s7.04811096.70059001 10.31483841 2.08229995c3.15554047 1.33468008 5.98962021 3.24548983 8.42349243 5.67937016 2.43387985 2.43387032 4.34468842 5.26795006 5.67937088 8.42348957 1.38171005 3.26673127 2.08229828 6.73714066 2.08229828 10.31484032s-.70058823 7.04811096-2.08229828 10.31483841c-1.33468246 3.15554047-3.24549103 5.98962021-5.67937088 8.42349243-2.43387222 2.43387985-5.26795196 4.34468842-8.42349243 5.67937088-3.26672745 1.38171005-6.73713875 2.08229828-10.31483841 2.08229828z"/><path d="m27 1c-3.51041985 0-6.91529846.68730164-10.12007141 2.0428009-3.09593964 1.30946732-5.87658692 3.18431092-8.26470947 5.57241822-2.3881073 2.38812255-4.2629509 5.16876983-5.57241822 8.26470947-1.35549926 3.20477295-2.0428009 6.60965156-2.0428009 10.12007141s.68730164 6.91529846 2.0428009 10.12007141c1.30946732 3.09593964 3.18431092 5.87658692 5.57241822 8.26470947 2.38812255 2.3881073 5.16876983 4.26294709 8.26470947 5.57241822 3.20477295 1.35549926 6.60965156 2.0428009 10.12007141 2.0428009s6.91529846-.68730164 10.12007141-2.0428009c3.09593964-1.30947113 5.87658692-3.18431092 8.26470947-5.57241822 2.3881073-2.38812255 4.26294709-5.16876983 5.57241822-8.26470947 1.35549926-3.20477295 2.0428009-6.60965156 2.0428009-10.12007141s-.68730164-6.91529846-2.0428009-10.12007141c-1.30947113-3.09593964-3.18431092-5.87658692-5.57241822-8.26470947-2.38812255-2.3881073-5.16876983-4.2629509-8.26470947-5.57241822-3.20477295-1.35549926-6.60965156-2.0428009-10.12007141-2.0428009m0-1c14.91168976 0 27 12.08831024 27 27s-12.08831024 27-27 27-27-12.08831024-27-27 12.08831024-27 27-27z" fill="#fd9a03"/></g><g fill="#fd9a03"><path d="m7.011 0-7.011 7 7.01 7 .99-.989-6.019-6.011 6.019-6.01z" transform="matrix(0 1 -1 0 34 18)"/><path d="m.75 17.466h-1.5v-17.466h1.5z" transform="translate(27 19.5)"/></g></svg>